<svg width="167" height="167" viewBox="0 0 167 167" fill="none" xmlns="http://www.w3.org/2000/svg">
<path d="M163.521 38.2709V20.8751C163.521 17.0306 160.407 13.9167 156.562 13.9167H10.4375C6.59301 13.9167 3.47916 17.0306 3.47916 20.8751V38.2709H163.521Z" fill="#444444"/>
<path d="M156.563 149.604H52.1875V38.271H163.521V142.646C163.521 146.49 160.407 149.604 156.563 149.604Z" fill="#606060"/>
<path d="M15.6562 31.3125C18.5385 31.3125 20.875 28.976 20.875 26.0938C20.875 23.2115 18.5385 20.875 15.6562 20.875C12.774 20.875 10.4375 23.2115 10.4375 26.0938C10.4375 28.976 12.774 31.3125 15.6562 31.3125Z" fill="#E86C60"/>
<path d="M33.0521 31.3125C35.9343 31.3125 38.2708 28.976 38.2708 26.0938C38.2708 23.2115 35.9343 20.875 33.0521 20.875C30.1698 20.875 27.8333 23.2115 27.8333 26.0938C27.8333 28.976 30.1698 31.3125 33.0521 31.3125Z" fill="#EFD358"/>
<path d="M50.4479 31.3125C53.3301 31.3125 55.6667 28.976 55.6667 26.0938C55.6667 23.2115 53.3301 20.875 50.4479 20.875C47.5657 20.875 45.2292 23.2115 45.2292 26.0938C45.2292 28.976 47.5657 31.3125 50.4479 31.3125Z" fill="#72C472"/>
<path d="M55.6667 149.604H10.4375C6.59301 149.604 3.47916 146.49 3.47916 142.646V38.271H55.6667V149.604Z" fill="#4F4F4F"/>
<path d="M41.75 48.7085H17.3958V55.6668H41.75V48.7085Z" fill="#B3B3B3"/>
<path d="M34.7916 69.5835H17.3958V76.5418H34.7916V69.5835Z" fill="#B3B3B3"/>
<path d="M41.75 90.4585H17.3958V97.4168H41.75V90.4585Z" fill="#B3B3B3"/>
<path d="M34.7916 111.333H17.3958V118.292H34.7916V111.333Z" fill="#B3B3B3"/>
<path d="M41.75 132.208H17.3958V139.167H41.75V132.208Z" fill="#B3B3B3"/>
<path d="M86.9791 48.7085H69.5833V55.6668H86.9791V48.7085Z" fill="#E86C60"/>
<path d="M107.854 69.5835H83.5V76.5418H107.854V69.5835Z" fill="#EFD358"/>
<path d="M128.729 90.4585H93.9375V97.4168H128.729V90.4585Z" fill="white"/>
<path d="M107.854 111.333H83.5V118.292H107.854V111.333Z" fill="#EFD358"/>
<path d="M86.9791 132.208H69.5833V139.167H86.9791V132.208Z" fill="#E86C60"/>
</svg>
