<svg width="159" height="151" viewBox="0 0 159 151" fill="none" xmlns="http://www.w3.org/2000/svg">
<path d="M136.994 32.2834C117.788 23.0908 100.299 28.6251 86.2499 33.0721C73.7394 37.0326 66.4332 38.9886 61.8438 33.3326C60.4472 31.467 61.5277 27.8712 62.6672 24.0635C64.3418 18.477 66.4297 11.5252 61.8264 5.52184C55.8891 -2.27074 42.642 -1.16247 33.9531 4.78532C12.6912 19.7521 0 44.1929 0 70.1589C0 114.218 35.8466 150.065 79.9061 150.065C115.506 150.065 147.124 126.17 156.835 91.8447C157.953 87.3213 166.938 47.2537 136.994 32.2834ZM114.648 84.0556C106.973 84.0556 100.751 77.8334 100.751 70.1589C100.751 62.4844 106.973 56.2622 114.648 56.2622C122.322 56.2622 128.545 62.4844 128.545 70.1589C128.545 77.8334 122.322 84.0556 114.648 84.0556Z" fill="#444444"/>
<path d="M31.2676 80.5814C37.0238 80.5814 41.6901 75.9151 41.6901 70.1589C41.6901 64.4027 37.0238 59.7363 31.2676 59.7363C25.5114 59.7363 20.845 64.4027 20.845 70.1589C20.845 75.9151 25.5114 80.5814 31.2676 80.5814Z" fill="#E86C60"/>
<path d="M48.6385 115.323C54.3947 115.323 59.061 110.657 59.061 104.901C59.061 99.1444 54.3947 94.478 48.6385 94.478C42.8823 94.478 38.2159 99.1444 38.2159 104.901C38.2159 110.657 42.8823 115.323 48.6385 115.323Z" fill="#EFD358"/>
<path d="M86.8544 129.22C92.6106 129.22 97.277 124.553 97.277 118.797C97.277 113.041 92.6106 108.375 86.8544 108.375C81.0982 108.375 76.4319 113.041 76.4319 118.797C76.4319 124.553 81.0982 129.22 86.8544 129.22Z" fill="#43A6DD"/>
</svg>
