<svg width="144" height="144" viewBox="0 0 144 144" fill="none" xmlns="http://www.w3.org/2000/svg">
<path d="M139.413 47.7609L128.631 37.9441L124.865 23.8586C124.31 21.7777 123.168 19.9003 121.575 18.4501C119.983 16.9999 118.007 16.0381 115.883 15.6791L101.505 13.2538L90.7232 3.43701C89.1306 1.98706 87.1546 1.02567 85.0309 0.667427C82.9071 0.309189 80.7251 0.569218 78.745 1.41652L65.3354 7.14542L50.9608 4.72012C48.8368 4.36072 46.6542 4.61975 44.6733 5.46632C42.6924 6.3129 40.9968 7.7113 39.7885 9.4948L31.6091 21.5634L18.1995 27.2959C16.2197 28.1429 14.5249 29.5409 13.317 31.3236C12.1091 33.1063 11.4389 35.1985 11.3862 37.3513L11.0285 51.9283L2.84897 63.9969C1.64022 65.7797 0.969591 67.8724 0.917041 70.0256C0.86449 72.1789 1.43223 74.3018 2.55258 76.1414L10.1321 88.5968L9.77425 103.174C9.72288 105.326 10.291 107.449 11.4111 109.288C12.5312 111.127 14.156 112.605 16.0923 113.547L29.2019 119.93L36.7849 132.386C37.9039 134.225 39.5282 135.704 41.4642 136.646C43.4002 137.588 45.5663 137.954 47.7042 137.699L62.1836 135.979L75.2968 142.358C77.2334 143.3 79.3997 143.665 81.5381 143.411C83.6764 143.156 85.6966 142.293 87.3582 140.923L98.6099 131.648L113.089 129.924C115.228 129.67 117.248 128.806 118.91 127.436C120.572 126.066 121.804 124.248 122.462 122.197L126.907 108.314L138.159 99.0353C139.821 97.6659 141.054 95.8473 141.711 93.7965C142.368 91.7457 142.421 89.5492 141.864 87.4691L138.101 73.38L142.551 59.4933C143.207 57.4427 143.261 55.2466 142.704 53.1665C142.148 51.0864 141.006 49.21 139.413 47.7609ZM114.593 81.5601C114.593 85.1762 113.319 88.6766 110.995 91.4468L98.7057 106.093C96.3815 108.863 93.1557 110.725 89.5947 111.353L70.7662 114.675C67.2046 115.303 63.5355 114.656 60.4035 112.848L43.8458 103.288C40.7138 101.48 38.3191 98.6254 37.0825 95.2268L30.5446 77.2591C29.3083 73.8615 29.3084 70.1371 30.5448 66.7397L37.0824 48.775C38.3191 45.3767 40.7137 42.5228 43.8455 40.7145L60.4034 31.1545C63.5354 29.3462 67.2045 28.6993 70.7661 29.3276L89.5947 32.6488C93.1556 33.2769 96.3815 35.1395 98.7057 37.9095L110.995 52.5554C113.319 55.3256 114.593 58.826 114.593 62.4421L114.593 81.5601Z" fill="#606060"/>
<path d="M50.3314 76.4348L61.7821 87.8852C62.3194 88.4259 62.9584 88.855 63.6622 89.1479C64.366 89.4407 65.1208 89.5915 65.8831 89.5915C66.6454 89.5915 67.4002 89.4407 68.104 89.1479C68.8078 88.855 69.4467 88.4259 69.9841 87.8852L93.6106 64.2597C94.1688 63.7409 94.6117 63.1106 94.9107 62.4096C95.2097 61.7087 95.358 60.9527 95.3461 60.1908C95.3544 59.436 95.2101 58.6872 94.9219 57.9896C94.6336 57.2919 94.2074 56.6597 93.6687 56.1309C93.1321 55.5867 92.4929 55.1544 91.7882 54.8588C91.0834 54.5631 90.3271 54.4102 89.5628 54.4087C88.7986 54.4072 88.0417 54.5572 87.3358 54.8501C86.6299 55.143 85.989 55.5729 85.4503 56.1149L65.9085 75.6566L58.55 68.2985C57.7411 67.4882 56.7102 66.9356 55.5875 66.7106C54.4648 66.4856 53.3006 66.5983 52.2418 67.0344C51.1831 67.4705 50.2773 68.2104 49.6387 69.1609C49.0001 70.1113 48.6575 71.2296 48.6539 72.3746C48.6455 73.1295 48.7898 73.8783 49.078 74.576C49.3663 75.2737 49.7926 75.906 50.3314 76.4348V76.4348Z" fill="#2E79BD"/>
</svg>
