<svg width="99" height="178" viewBox="0 0 99 178" fill="none" xmlns="http://www.w3.org/2000/svg">
<path d="M71.7792 38.7986H42.8921C42.408 38.7986 41.9407 38.8649 41.4917 38.9774C40.8162 38.9954 40.1335 39.1218 39.4683 39.3834C38.9754 39.5887 33.7722 41.6583 28.4041 47.1096C24.1669 51.3698 19.9318 57.9779 18.3554 66.9195C17.9356 69.3021 17.6938 71.8408 17.7033 74.5561C17.7033 77.8735 18.0473 81.4222 18.7913 85.2108C18.8848 85.6901 18.9877 86.1749 19.0951 86.6619C19.5083 88.5425 20.0173 90.4795 20.6328 92.4773C20.7613 92.8936 20.8964 93.3136 21.0336 93.7357C21.8405 96.207 22.8036 98.7662 23.9397 101.419C23.9616 101.47 23.9821 101.52 24.004 101.572C24.1566 101.926 24.3479 102.25 24.556 102.558C25.6805 104.223 27.5453 105.197 29.4985 105.197C29.9228 105.197 30.3499 105.147 30.7749 105.054C31.1429 104.972 31.5087 104.859 31.868 104.703C32.6624 104.358 33.3407 103.859 33.8913 103.259C35.4429 101.567 35.954 99.0557 34.988 96.8095C34.6973 96.1352 34.425 95.4734 34.1621 94.8189C33.9942 94.4012 33.8299 93.9864 33.6729 93.5774C32.7266 91.1076 31.9782 88.7862 31.3934 86.5989C31.2751 86.1577 31.1634 85.7216 31.0589 85.2914C30.2798 82.0894 29.8636 79.193 29.7242 76.5836C29.6928 76.0043 29.6767 75.4404 29.6716 74.8892C29.6701 74.7789 29.6665 74.6653 29.6665 74.5561C29.6811 71.4897 30.0608 68.8304 30.6844 66.5036C32.0154 61.5371 34.4681 58.097 36.9309 55.5318C36.9916 55.4696 37.0529 55.4131 37.1135 55.3523V67.8294L59.4261 46.6625C61.2479 45.0684 63.8707 44.7533 66.6636 45.7632C66.9951 45.8831 67.3251 46.0271 67.653 46.1821C69.3469 46.9817 70.976 48.2279 72.321 49.7773C73.8887 51.5838 74.9226 53.5784 75.4132 55.5059C76.0909 58.1695 75.7236 60.7046 74.2245 62.432C75.4673 63.3342 76.6115 64.5134 77.5578 65.8751V58.6324C78.0024 59.3428 78.4507 60.0933 78.8976 60.9017C82.9398 68.2291 86.9383 79.6614 86.9478 96.8527C86.9478 98.5677 86.9076 100.344 86.8243 102.184C86.7112 104.664 88.1153 106.862 90.2145 107.874V111.089H88.5322C86.8806 111.089 85.5415 112.433 85.5415 114.091V138.857C85.5415 140.514 86.8806 141.858 88.5322 141.858H96.0092C97.6609 141.858 99 140.514 99 138.857V114.091C99 112.433 97.6609 111.089 96.0092 111.089H94.3269V108.259C96.7875 107.607 98.6525 105.419 98.7751 102.733C98.8664 100.718 98.9117 98.7596 98.9117 96.8527C98.9263 76.5023 93.7552 62.3492 88.3497 53.3197C82.953 44.2758 77.4161 40.3769 76.8605 39.9998C75.7403 39.2387 74.456 38.917 73.2015 38.983C72.7459 38.8668 72.2713 38.7986 71.7792 38.7986Z" fill="#444444"/>
<path d="M77.2606 79.7538L59.1706 90.1718L55.6029 92.2261L40.2401 101.073L37.1135 102.874V168.722C37.1135 173.846 41.2536 178 46.3589 178C51.4629 178 55.6029 173.846 55.6029 168.722V101.724H59.1706V168.722C59.1706 173.846 63.3106 178 68.416 178C73.5199 178 77.66 173.846 77.66 168.722V81.7121C77.66 81.2672 77.6183 80.833 77.5578 80.405V79.5361C77.5118 79.5698 77.4672 79.605 77.4197 79.6372C77.365 79.6746 77.3168 79.7183 77.2606 79.7538Z" fill="#444444"/>
<path d="M40.9542 20.714C43.0608 29.7945 52.1025 35.4421 61.1494 33.3269C70.1969 31.2133 75.8237 22.1373 73.7171 13.0568C71.6098 3.9764 62.5674 -1.67123 53.5205 0.443835C44.4751 2.55747 38.8477 11.6336 40.9542 20.714Z" fill="#444444"/>
<path d="M17.8341 87.8577L2.93424 101.986L2.94449 101.999C2.17197 102.783 1.893 103.967 2.06826 105.273L19.3471 93.3634C18.7622 91.5019 18.2562 89.6653 17.8341 87.8577Z" fill="#444444"/>
<path d="M37.1442 81.0971L49.1095 72.8503L65.7108 61.4081C67.7559 60.1182 70.3955 60.2135 72.9993 61.6455C73.0439 61.6701 73.0869 61.6994 73.1315 61.7247C75.1519 59.5704 74.8058 55.5263 72.3969 51.9718C72.0844 51.5108 71.7427 51.0561 71.3616 50.6171C70.4444 49.5599 69.4215 48.694 68.3656 48.0263C65.4369 46.1747 62.2475 45.8881 60.3009 47.5903L37.1135 69.5769L31.1824 75.2002C31.2342 78.0797 31.6321 81.1429 32.3842 84.3778L37.1135 81.1183L37.1442 81.0971ZM64.1701 48.7585C65.6268 47.4848 68.5833 48.499 70.776 51.0246C72.9672 53.5501 73.5638 56.6297 72.1078 57.9027C71.8858 58.0969 71.6251 58.2318 71.3411 58.3223C71.0636 58.411 70.7613 58.4538 70.4401 58.4487C68.9345 58.4231 67.0317 57.3996 65.5012 55.6366C63.6889 53.5493 62.9726 51.0861 63.5998 49.5741C63.6721 49.3983 63.7641 49.236 63.8736 49.0879C63.962 48.9692 64.0576 48.8567 64.1701 48.7585ZM61.9314 50.1202C62.2293 49.86 62.5915 49.6999 62.9952 49.6244C61.6926 50.959 62.3082 53.9319 64.438 56.3856C66.1832 58.3949 68.4102 59.4436 69.9815 59.1479C69.9436 59.1867 69.91 59.2292 69.8691 59.2651C68.4123 60.5381 65.4545 59.5231 63.2624 56.9983C61.0705 54.4735 60.4754 51.3946 61.9314 50.1202Z" fill="#444444"/>
<path d="M23.3929 103.495C23.1483 103.145 22.9293 102.777 22.7438 102.382C22.7094 102.308 22.6642 102.241 22.6313 102.165C21.5302 99.6077 20.5715 97.091 19.7523 94.6189L2.38734 106.582L1.36509 107.286L1.37309 107.3C1.35044 107.317 1.33145 107.337 1.30954 107.355C-0.432595 108.725 -0.450166 111.984 1.33877 114.842C3.15104 117.734 6.13824 119.136 8.12501 118.079L8.13376 118.093L28.1536 106.563C26.2231 106.208 24.5189 105.104 23.3929 103.495Z" fill="#444444"/>
<path d="M73.2665 63.3147C72.8818 63.0495 72.4911 62.8201 72.0969 62.6211C70.0852 61.6024 68.0159 61.4617 66.4314 62.4606L50.51 73.429L37.1136 82.6581L32.7128 85.6898C33.286 87.9141 34.0147 90.2121 34.9062 92.5836C35.0625 92.9977 35.2217 93.4133 35.3867 93.8325C35.6985 94.6211 36.0147 95.4119 36.3608 96.2158C37.1464 98.0422 37.1428 100.011 36.5134 101.748L37.1136 101.403L39.077 100.272L55.603 90.7551L59.1706 88.7004L76.5844 78.672C76.74 78.5738 76.8831 78.4616 77.0233 78.3462C77.2146 78.1883 77.3957 78.0194 77.5578 77.8314C79.3452 75.7628 79.3577 71.9661 77.5578 68.3705C77.3563 67.9671 77.1394 67.5655 76.8919 67.1701C75.874 65.5453 74.6079 64.2382 73.2665 63.3147ZM73.6557 75.4062C72.0903 76.3319 69.5872 75.0208 67.8859 72.459C67.7794 72.2985 67.6749 72.1336 67.5749 71.9632C66.963 70.9195 66.5723 69.8444 66.3978 68.8488C66.3007 68.2969 66.2679 67.7693 66.3059 67.2863C66.3891 66.2316 66.7936 65.3877 67.5223 64.9568C67.8626 64.7557 68.2481 64.6651 68.6584 64.6651C68.1853 64.9982 67.8647 65.5182 67.6983 66.165C67.5669 66.6751 67.5274 67.2595 67.5865 67.8909C67.6931 69.0375 68.1116 70.3303 68.8432 71.5769C69.033 71.9009 69.2382 72.2054 69.4514 72.4938C70.7482 74.2501 72.4145 75.3132 73.7879 75.3118C73.7434 75.3429 73.7025 75.3784 73.6557 75.4062ZM76.1055 74.4792C75.8514 74.6294 75.571 74.7137 75.2753 74.7507C75.0248 74.7818 74.7619 74.7742 74.4911 74.7295C74.4495 74.7225 74.4078 74.7178 74.3655 74.7089C73.4331 74.5181 72.4181 73.906 71.4988 72.972C70.9629 72.4286 70.4598 71.7778 70.0246 71.0368C69.2075 69.6443 68.7833 68.1958 68.7461 66.9565C68.7241 66.2287 68.8366 65.575 69.0849 65.048C69.1375 64.9348 69.1966 64.8278 69.2623 64.7271C69.366 64.5677 69.4857 64.4243 69.6209 64.2991C69.7296 64.199 69.8435 64.1063 69.972 64.0304C70.1867 63.9036 70.4196 63.8201 70.6649 63.7746C71.1965 63.6765 71.7894 63.7674 72.3991 64.0136C73.6886 64.5354 75.0504 65.7656 76.0522 67.4721C77.7455 70.3582 77.7688 73.4949 76.1055 74.4792Z" fill="#444444"/>
</svg>
