<svg width="503" height="498" viewBox="0 0 503 498" fill="none" xmlns="http://www.w3.org/2000/svg">
<path d="M469.06 456.475H33.5043V182.407C33.5043 168.288 44.3932 157.492 58.6325 157.492H443.932C458.171 157.492 469.06 168.288 469.06 182.407V456.475Z" fill="#606060"/>
<path d="M435.556 190.711H67.0085V456.474H435.556V190.711Z" fill="#02B8D9"/>
<path d="M8.37604 456.475C8.37604 479.729 26.8034 498 50.2564 498H452.308C475.761 498 494.188 479.729 494.188 456.475H8.37604Z" fill="#707070"/>
<path d="M452.308 481.39H50.2564C33.5042 481.39 18.4273 471.424 11.7265 456.475H8.37604C8.37604 479.729 26.8034 498 50.2564 498H452.308C475.761 498 494.188 479.729 494.188 456.475H490.838C484.137 471.424 469.06 481.39 452.308 481.39Z" fill="#606060"/>
<path d="M251.282 115.966C246.256 115.966 242.906 112.644 242.906 107.661V66.1354C242.906 61.1524 246.256 57.8303 251.282 57.8303C256.308 57.8303 259.658 61.1524 259.658 66.1354V107.661C259.658 112.644 256.308 115.966 251.282 115.966Z" fill="#EFEFEF"/>
<path d="M385.299 132.577C380.274 132.577 376.923 129.255 376.923 124.271V41.2206C376.923 36.2376 380.274 32.9155 385.299 32.9155H443.932C448.957 32.9155 452.308 36.2376 452.308 41.2206C452.308 46.2037 448.957 49.5257 443.932 49.5257H393.675V124.271C393.675 129.255 390.325 132.577 385.299 132.577Z" fill="#EFEFEF"/>
<path d="M117.265 132.577C112.239 132.577 108.889 129.255 108.889 124.271V49.5257H58.6324C53.6068 49.5257 50.2563 46.2037 50.2563 41.2206C50.2563 36.2376 53.6068 32.9155 58.6324 32.9155H117.265C122.291 32.9155 125.641 36.2376 125.641 41.2206V124.271C125.641 129.255 122.291 132.577 117.265 132.577Z" fill="#EFEFEF"/>
<path d="M33.5043 74.4407C52.0082 74.4407 67.0086 59.5674 67.0086 41.2203C67.0086 22.8733 52.0082 8 33.5043 8C15.0004 8 0 22.8733 0 41.2203C0 59.5674 15.0004 74.4407 33.5043 74.4407Z" fill="#04B134"/>
<path d="M251.282 66.4407C269.786 66.4407 284.786 51.5674 284.786 33.2203C284.786 14.8733 269.786 0 251.282 0C232.778 0 217.778 14.8733 217.778 33.2203C217.778 51.5674 232.778 66.4407 251.282 66.4407Z" fill="#F46240"/>
<path d="M469.06 74.4407C487.564 74.4407 502.564 59.5674 502.564 41.2203C502.564 22.8733 487.564 8 469.06 8C450.556 8 435.556 22.8733 435.556 41.2203C435.556 59.5674 450.556 74.4407 469.06 74.4407Z" fill="#F2C341"/>
</svg>
