<svg width="287" height="305" viewBox="0 0 287 305" fill="none" xmlns="http://www.w3.org/2000/svg">
<g filter="url(#filter0_d_25_241)">
<path d="M252.171 174.457C253.009 170.305 257.197 166.983 261.385 166.983H274.786C281.487 166.983 286.513 162.83 286.513 157.017V126.288C286.513 121.305 282.325 116.322 276.462 116.322H261.385C257.197 116.322 253.009 113 252.171 108.847C249.658 101.373 247.145 93.898 242.957 87.254C240.444 83.1014 241.282 78.9489 244.632 75.6269L253.846 66.4913C258.872 61.5082 258.872 55.6947 254.684 51.5421L233.744 30.7794C229.556 26.6269 223.692 26.6269 219.504 30.7794L209.453 42.4065C206.103 45.7286 201.915 45.7286 197.727 44.0675C191.026 39.915 183.487 37.4235 175.949 34.932C171.761 34.1014 168.41 29.9489 168.41 25.7964V12.5082C168.41 5.86415 164.222 0.881104 158.359 0.881104H127.368C122.342 0.881104 117.316 5.03365 117.316 10.8472V25.7964C117.316 29.9489 113.966 34.1014 109.778 34.932C102.239 37.4235 94.7009 39.915 88 44.0675C83.812 46.5591 79.6239 45.7286 76.2735 42.4065L67.8974 33.2709C62.8718 28.2879 57.0085 28.2879 52.8205 32.4404L31.8803 53.2031C27.6923 57.3557 27.6923 63.1692 31.8803 67.3218L41.9316 77.2879C45.282 80.6099 45.282 84.7625 43.6068 88.915C39.4188 95.5591 36.906 103.034 34.3932 110.508C33.5555 114.661 29.3675 117.983 25.1795 117.983H11.7778C5.07691 117.983 0.0512695 122.135 0.0512695 127.949V158.678C0.0512695 163.661 4.23931 168.644 10.1026 168.644H25.1795C29.3675 168.644 33.5555 171.966 34.3932 176.118C36.906 183.593 39.4188 191.068 43.6068 197.712C46.1197 201.864 45.282 206.017 41.9316 209.339L33.5555 216.813C28.5299 221.796 28.5299 227.61 32.7179 231.762L53.6581 252.525C57.8461 256.678 63.7094 256.678 67.8974 252.525L77.9487 242.559C81.2991 239.237 85.4872 239.237 89.6752 240.898C96.3761 245.051 103.915 247.542 111.453 250.034C115.641 250.864 118.991 255.017 118.991 259.169V274.118C118.991 279.101 123.179 284.084 129.043 284.084H160.034C165.06 284.084 170.085 279.932 170.085 274.118V259.169C170.085 255.017 173.436 250.864 177.624 250.034C185.162 247.542 192.701 245.051 199.402 240.898C203.59 238.407 207.778 239.237 211.128 242.559L220.342 251.695C225.368 256.678 231.231 256.678 235.419 252.525L256.359 231.762C260.547 227.61 260.547 221.796 256.359 217.644L243.795 207.678C240.444 204.356 240.444 200.203 242.12 196.051C246.308 189.407 249.658 181.932 252.171 174.457ZM143.282 216.813C101.402 216.813 67.8974 183.593 67.8974 142.068C67.8974 100.542 101.402 67.3218 143.282 67.3218C185.162 67.3218 218.667 100.542 218.667 142.068C218.667 183.593 185.162 216.813 143.282 216.813Z" fill="white"/>
</g>
<defs>
<filter id="filter0_d_25_241" x="0.0512695" y="0.881104" width="286.462" height="303.203" filterUnits="userSpaceOnUse" color-interpolation-filters="sRGB">
<feFlood flood-opacity="0" result="BackgroundImageFix"/>
<feColorMatrix in="SourceAlpha" type="matrix" values="0 0 0 0 0 0 0 0 0 0 0 0 0 0 0 0 0 0 127 0" result="hardAlpha"/>
<feOffset dy="20"/>
<feComposite in2="hardAlpha" operator="out"/>
<feColorMatrix type="matrix" values="0 0 0 0 0 0 0 0 0 0 0 0 0 0 0 0 0 0 0.25 0"/>
<feBlend mode="normal" in2="BackgroundImageFix" result="effect1_dropShadow_25_241"/>
<feBlend mode="normal" in="SourceGraphic" in2="effect1_dropShadow_25_241" result="shape"/>
</filter>
</defs>
</svg>
