<svg width="478" height="230" viewBox="0 0 478 230" fill="none" xmlns="http://www.w3.org/2000/svg">
<path d="M230.286 47.1567V175H39V47.1567L134.643 32.8013L230.286 47.1567Z" fill="#DADADA" fill-opacity="0.7"/>
<path d="M169.277 97.5703H97.977C95.3342 97.5703 93.1919 95.428 93.1919 92.7851C93.1919 90.1422 95.3342 88 97.977 88H169.277C171.92 88 174.063 90.1422 174.063 92.7851C174.063 95.428 171.92 97.5703 169.277 97.5703Z" fill="#CED8E1" fill-opacity="0.7"/>
<path d="M103.34 120.097H80.1501C77.5072 120.097 75.365 117.955 75.365 115.312C75.365 112.669 77.5072 110.527 80.1501 110.527H103.34C105.983 110.527 108.125 112.669 108.125 115.312C108.125 117.955 105.983 120.097 103.34 120.097Z" fill="#CED8E1" fill-opacity="0.7"/>
<path d="M146.238 120.097H123.049C120.406 120.097 118.263 117.955 118.263 115.312C118.263 112.669 120.406 110.527 123.049 110.527H146.238C148.881 110.527 151.023 112.669 151.023 115.312C151.023 117.955 148.881 120.097 146.238 120.097Z" fill="#CED8E1" fill-opacity="0.7"/>
<path d="M189.136 120.097H165.947C163.304 120.097 161.161 117.955 161.161 115.312C161.161 112.669 163.304 110.527 165.947 110.527H189.136C191.779 110.527 193.921 112.669 193.921 115.312C193.922 117.955 191.779 120.097 189.136 120.097Z" fill="#CED8E1" fill-opacity="0.7"/>
<path d="M230.289 19.0001L39 19V47.1564L230.289 47.1565V19.0001Z" fill="#6A758D" fill-opacity="0.7"/>
<path d="M310.286 71.1567V199H119V71.1567L214.643 56.8013L310.286 71.1567Z" fill="#DADADA"/>
<path d="M249.277 121.57H177.977C175.334 121.57 173.192 119.428 173.192 116.785C173.192 114.142 175.334 112 177.977 112H249.277C251.92 112 254.063 114.142 254.063 116.785C254.063 119.428 251.92 121.57 249.277 121.57Z" fill="#CED8E1"/>
<path d="M183.34 144.097H160.15C157.507 144.097 155.365 141.955 155.365 139.312C155.365 136.669 157.507 134.527 160.15 134.527H183.34C185.983 134.527 188.125 136.669 188.125 139.312C188.125 141.955 185.983 144.097 183.34 144.097Z" fill="#CED8E1"/>
<path d="M226.238 144.097H203.049C200.406 144.097 198.263 141.955 198.263 139.312C198.263 136.669 200.406 134.527 203.049 134.527H226.238C228.881 134.527 231.023 136.669 231.023 139.312C231.023 141.955 228.881 144.097 226.238 144.097Z" fill="#CED8E1"/>
<path d="M269.136 144.097H245.947C243.304 144.097 241.161 141.955 241.161 139.312C241.161 136.669 243.304 134.527 245.947 134.527H269.136C271.779 134.527 273.921 136.669 273.921 139.312C273.922 141.955 271.779 144.097 269.136 144.097Z" fill="#CED8E1"/>
<path d="M310.289 43.0001L119 43V71.1564L310.289 71.1565V43.0001Z" fill="#6A758D"/>
<path d="M191.286 88.1562V216H0V88.1562L95.6431 73.8008L191.286 88.1562Z" fill="#EBEDEC"/>
<path d="M191.286 60V88.1564H159.526L149.956 74.0782L159.526 60H191.286Z" fill="#EE3840"/>
<path d="M130.277 138.57H58.977C56.3342 138.57 54.1919 136.428 54.1919 133.785C54.1919 131.142 56.3342 129 58.977 129H130.277C132.92 129 135.063 131.142 135.063 133.785C135.063 136.428 132.92 138.57 130.277 138.57Z" fill="#A2A9AF"/>
<path d="M64.3399 161.097H41.1501C38.5072 161.097 36.365 158.955 36.365 156.312C36.365 153.669 38.5072 151.527 41.1501 151.527H64.3399C66.9827 151.527 69.125 153.669 69.125 156.312C69.125 158.955 66.9827 161.097 64.3399 161.097Z" fill="#A2A9AF"/>
<path d="M107.238 161.097H84.0486C81.4057 161.097 79.2634 158.955 79.2634 156.312C79.2634 153.669 81.4057 151.527 84.0486 151.527H107.238C109.881 151.527 112.023 153.669 112.023 156.312C112.023 158.955 109.881 161.097 107.238 161.097Z" fill="#A2A9AF"/>
<path d="M150.136 161.097H126.947C124.304 161.097 122.161 158.955 122.161 156.312C122.161 153.669 124.304 151.527 126.947 151.527H150.136C152.779 151.527 154.921 153.669 154.921 156.312C154.922 158.955 152.779 161.097 150.136 161.097Z" fill="#A2A9AF"/>
<path d="M159.526 60H0V88.1564H159.526V60Z" fill="#4C5870"/>
<path d="M400.673 33.8823L400.545 33.9149C395.949 34.1975 392.121 34.9782 388.962 36.6427C385.803 38.3073 383.41 40.8907 381.807 44.2791C378.601 51.0562 378.193 60.8841 378.727 75.6908L378.791 77.7764H380.876H422.748L422.876 75.7871C423.982 61.75 423.333 51.8298 419.828 44.8887C416.324 37.9478 409.747 34.517 400.834 33.9149L400.673 33.8823Z" fill="#E3E6D4"/>
<path d="M397.85 40.7808C396.857 40.8794 396.063 41.6531 395.924 42.6418C394.949 49.712 393.981 56.7819 393.005 63.8503C392.93 64.3497 393.032 64.8605 393.293 65.2942C395.145 68.3143 395.999 70.0039 396.887 71.2942C397.331 71.9398 397.842 72.5625 398.62 72.9947C399.397 73.4268 400.245 73.5402 400.962 73.5402C401.566 73.5402 402.325 73.4746 403.08 73.123C403.834 72.7748 404.39 72.2538 404.908 71.6476C405.946 70.4352 407.094 68.6907 409.433 65.423C409.764 64.9466 409.891 64.3572 409.785 63.7871C408.638 56.715 407.505 49.6475 406.352 42.5786C406.169 41.5354 405.261 40.7764 404.203 40.7808H398.074C397.999 40.7768 397.924 40.7768 397.85 40.7808H397.85Z" fill="#567BFD"/>
<path d="M394.256 34.4604L394.096 36.5139C393.937 38.7877 393.889 41.887 396.245 44.2465L396.855 44.8888H397.753H405.614L406.256 44.1513C408.305 41.8011 408.382 38.7482 407.668 36.2582L407.219 34.7191L394.256 34.4604Z" fill="#567BFD"/>
<path d="M401.058 0C390.918 0 382.705 8.44726 382.705 18.738C382.705 29.0287 390.918 37.4759 401.058 37.4759C411.198 37.4759 419.443 29.0287 419.443 18.738C419.443 8.44726 411.198 0 401.058 0V0Z" fill="#F8C157"/>
<path d="M401.058 0C391.281 0.0137994 383.253 7.89692 382.769 17.8075C382.697 19.4795 384.462 20.6028 385.946 19.8289C389.664 17.8677 392.894 15.259 395.443 12C402.242 17.419 409.575 21.036 417.679 18.8021C418.733 18.5245 419.419 17.5093 419.283 16.4278C418.15 7.0978 410.322 0.0110066 401.058 0V0Z" fill="#5A540C"/>
<path d="M396.278 24.9953C395.81 25.0613 395.377 25.2779 395.043 25.612C394.71 25.9461 394.494 26.3797 394.429 26.8473C394.363 27.3149 394.452 27.7907 394.681 28.2034C394.911 28.616 395.268 28.943 395.7 29.1344C399.246 30.7867 402.97 30.5274 406.32 29.2C406.586 29.0949 406.828 28.9382 407.033 28.7393C407.239 28.5404 407.403 28.3032 407.516 28.041C407.629 27.7787 407.69 27.4964 407.694 27.2107C407.699 26.925 407.647 26.6416 407.541 26.376C407.436 26.1104 407.279 25.8681 407.08 25.6631C406.881 25.4581 406.643 25.2945 406.381 25.1813C406.119 25.0681 405.837 25.0075 405.551 25.0034C405.265 24.9992 404.982 25.0517 404.716 25.1573C402.128 26.184 399.92 26.3037 397.529 25.1898C397.14 25.003 396.704 24.9363 396.278 24.9978L396.278 24.9953Z" fill="#F69628"/>
<path d="M423.027 76.106L422.899 76.1385C418.303 76.4211 414.474 77.2019 411.316 78.8663C408.157 80.5309 405.764 83.1143 404.161 86.5027C400.954 93.2798 400.546 103.108 401.08 117.914L401.145 120H403.23H445.102L445.23 118.011C446.336 103.974 445.687 94.0534 442.182 87.1123C438.677 80.1714 432.101 76.7406 423.187 76.1385L423.027 76.106Z" fill="#E3E6D4"/>
<path d="M420.203 83.0044C419.21 83.103 418.416 83.8768 418.278 84.8654C417.303 91.9356 416.335 99.0056 415.358 106.074C415.284 106.573 415.386 107.084 415.647 107.518C417.499 110.538 418.353 112.228 419.241 113.518C419.684 114.163 420.196 114.786 420.973 115.218C421.751 115.65 422.598 115.764 423.316 115.764C423.92 115.764 424.679 115.698 425.433 115.347C426.187 114.998 426.743 114.477 427.262 113.871C428.3 112.659 429.447 110.914 431.786 107.647C432.118 107.17 432.245 106.581 432.139 106.011C430.991 98.9386 429.859 91.8711 428.706 84.8022C428.523 83.7591 427.615 83 426.556 83.0044H420.428C420.353 83.0005 420.278 83.0005 420.203 83.0044H420.203Z" fill="#7C5AE0"/>
<path d="M416.61 76.6841L416.449 78.7376C416.29 81.0113 416.242 84.1107 418.599 86.4702L419.209 87.1124H420.107H427.968L428.61 86.3749C430.658 84.0248 430.735 80.9718 430.021 78.4819L429.572 76.9428L416.61 76.6841Z" fill="#7C5AE0"/>
<path d="M423.412 42.2236C413.272 42.2236 405.059 50.6709 405.059 60.9616C405.059 71.2523 413.272 79.6996 423.412 79.6996C433.552 79.6996 441.797 71.2523 441.797 60.9616C441.797 50.6709 433.552 42.2236 423.412 42.2236V42.2236Z" fill="#F8C157"/>
<path d="M423.412 42.2236C413.634 42.2374 405.607 50.1206 405.123 60.0311C405.051 61.7031 406.816 62.8264 408.3 62.0525C412.017 60.0914 415.248 57.4826 417.797 54.2236C424.595 59.6427 431.928 63.2596 440.032 61.0258C441.087 60.7481 441.773 59.7329 441.637 58.6514C440.503 49.3214 432.675 42.2346 423.412 42.2236V42.2236Z" fill="black"/>
<path d="M418.631 67.219C418.164 67.2849 417.73 67.5015 417.397 67.8356C417.063 68.1697 416.847 68.6033 416.782 69.0709C416.717 69.5385 416.806 70.0144 417.035 70.427C417.265 70.8397 417.622 71.1666 418.054 71.358C421.6 73.0103 425.324 72.751 428.674 71.4237C428.94 71.3185 429.182 71.1618 429.387 70.9629C429.592 70.7641 429.756 70.5269 429.87 70.2646C429.983 70.0023 430.044 69.7201 430.048 69.4344C430.052 69.1487 430 68.8652 429.895 68.5996C429.789 68.3341 429.633 68.0917 429.434 67.8867C429.235 67.6817 428.997 67.5181 428.735 67.405C428.472 67.2918 428.19 67.2311 427.905 67.227C427.619 67.2229 427.335 67.2753 427.07 67.3809C424.482 68.4076 422.274 68.5273 419.883 67.4135C419.494 67.2267 419.058 67.1599 418.631 67.2215L418.631 67.219Z" fill="#F69628"/>
<path d="M367.143 63.0659L367.015 63.0985C362.419 63.3811 358.591 64.1618 355.432 65.8263C352.273 67.4909 349.88 70.0742 348.277 73.4626C345.07 80.2398 344.662 90.0677 345.196 104.874L345.261 106.96H347.346H389.218L389.346 104.971C390.452 90.9336 389.803 81.0133 386.298 74.0723C382.793 67.1314 376.217 63.7006 367.303 63.0985L367.143 63.0659Z" fill="#E3E6D4"/>
<path d="M364.319 69.9644C363.326 70.0629 362.532 70.8367 362.394 71.8253C361.419 78.8955 360.451 85.9655 359.474 93.0339C359.4 93.5333 359.502 94.0441 359.763 94.4778C361.615 97.4978 362.469 99.1875 363.357 100.478C363.801 101.123 364.312 101.746 365.089 102.178C365.867 102.61 366.714 102.724 367.432 102.724C368.036 102.724 368.795 102.658 369.549 102.307C370.304 101.958 370.859 101.437 371.378 100.831C372.416 99.6188 373.564 97.8743 375.902 94.6066C376.234 94.1302 376.361 93.5408 376.255 92.9707C375.107 85.8986 373.975 78.8311 372.822 71.7622C372.639 70.719 371.731 69.9599 370.672 69.9644H364.544C364.469 69.9604 364.394 69.9604 364.319 69.9644H364.319Z" fill="#FD5656"/>
<path d="M360.726 63.644L360.565 65.6975C360.406 67.9713 360.358 71.0706 362.715 73.4301L363.325 74.0724H364.223H372.084L372.726 73.3349C374.774 70.9847 374.851 67.9318 374.138 65.4418L373.688 63.9027L360.726 63.644Z" fill="#FD5656"/>
<path d="M367.528 29.1836C357.388 29.1836 349.175 37.6309 349.175 47.9216C349.175 58.2123 357.388 66.6595 367.528 66.6595C377.668 66.6595 385.913 58.2123 385.913 47.9216C385.913 37.6309 377.668 29.1836 367.528 29.1836V29.1836Z" fill="#F8C157"/>
<path d="M367.528 29.1836C357.75 29.1974 349.723 37.0805 349.239 46.9911C349.167 48.6631 350.932 49.7864 352.416 49.0125C356.133 47.0513 359.364 44.4425 361.913 41.1836C368.711 46.6026 376.044 50.2196 384.148 47.9857C385.203 47.7081 385.889 46.6928 385.753 45.6114C384.62 36.2814 376.791 29.1946 367.528 29.1836V29.1836Z" fill="#F8EB5B"/>
<path d="M362.747 54.1789C362.28 54.2449 361.846 54.4615 361.513 54.7956C361.179 55.1297 360.964 55.5633 360.898 56.0309C360.833 56.4985 360.922 56.9743 361.151 57.387C361.381 57.7996 361.738 58.1265 362.17 58.318C365.716 59.9703 369.44 59.711 372.79 58.3836C373.056 58.2785 373.298 58.1218 373.503 57.9229C373.708 57.724 373.872 57.4868 373.986 57.2245C374.099 56.9623 374.16 56.68 374.164 56.3943C374.168 56.1086 374.116 55.8252 374.011 55.5596C373.905 55.294 373.749 55.0517 373.55 54.8467C373.351 54.6417 373.113 54.4781 372.851 54.3649C372.588 54.2517 372.306 54.1911 372.021 54.1869C371.735 54.1828 371.451 54.2353 371.186 54.3409C368.598 55.3676 366.39 55.4872 363.999 54.3734C363.61 54.1866 363.174 54.1199 362.747 54.1814L362.747 54.1789Z" fill="#F69628"/>
<path d="M395.531 188.766H456.672C459.035 188.766 460.938 190.668 460.938 193.031V207.25C460.938 209.613 459.035 211.516 456.672 211.516H395.531C393.168 211.516 391.266 209.613 391.266 207.25V193.031C391.266 190.668 393.168 188.766 395.531 188.766Z" fill="#A8C5F7"/>
<path d="M457.897 188.963C458.013 189.353 458.094 189.758 458.094 190.188V204.406C458.094 206.769 456.191 208.672 453.828 208.672H392.687C392.258 208.672 391.853 208.592 391.463 208.475C391.989 210.233 393.597 211.516 395.531 211.516H456.672C459.035 211.516 460.937 209.613 460.937 207.25V193.031C460.937 191.097 459.655 189.49 457.897 188.963V188.963Z" fill="#91B8FB"/>
<path d="M405.484 200.141C405.484 201.711 404.211 202.984 402.641 202.984C401.07 202.984 399.797 201.711 399.797 200.141C399.797 198.57 401.07 197.297 402.641 197.297C404.211 197.297 405.484 198.57 405.484 200.141V200.141Z" fill="#E2E7FA"/>
<path d="M395.531 166.016H456.672C459.035 166.016 460.938 167.918 460.938 170.281V184.5C460.938 186.863 459.035 188.766 456.672 188.766H395.531C393.168 188.766 391.266 186.863 391.266 184.5V170.281C391.266 167.918 393.168 166.016 395.531 166.016V166.016Z" fill="#A8C5F7"/>
<path d="M457.897 166.213C458.013 166.603 458.094 167.008 458.094 167.438V181.656C458.094 184.019 456.191 185.922 453.828 185.922H392.687C392.258 185.922 391.853 185.842 391.463 185.725C391.989 187.483 393.597 188.766 395.531 188.766H456.672C459.035 188.766 460.937 186.863 460.937 184.5V170.281C460.937 168.347 459.655 166.74 457.897 166.213V166.213Z" fill="#91B8FB"/>
<path d="M405.484 177.391C405.484 178.961 404.211 180.234 402.641 180.234C401.07 180.234 399.797 178.961 399.797 177.391C399.797 175.82 401.07 174.547 402.641 174.547C404.211 174.547 405.484 175.82 405.484 177.391V177.391Z" fill="#E2E7FA"/>
<path d="M395.531 143.266H456.672C459.035 143.266 460.938 145.168 460.938 147.531V161.75C460.938 164.113 459.035 166.016 456.672 166.016H395.531C393.168 166.016 391.266 164.113 391.266 161.75V147.531C391.266 145.168 393.168 143.266 395.531 143.266V143.266Z" fill="#A8C5F7"/>
<path d="M457.897 143.463C458.013 143.853 458.094 144.258 458.094 144.688V158.906C458.094 161.269 456.191 163.172 453.828 163.172H392.687C392.258 163.172 391.853 163.092 391.463 162.975C391.989 164.733 393.597 166.016 395.531 166.016H456.672C459.035 166.016 460.937 164.113 460.937 161.75V147.531C460.937 145.597 459.655 143.99 457.897 143.463V143.463Z" fill="#91B8FB"/>
<path d="M405.484 154.641C405.484 156.211 404.211 157.484 402.641 157.484C401.07 157.484 399.797 156.211 399.797 154.641C399.797 153.07 401.07 151.797 402.641 151.797C404.211 151.797 405.484 153.07 405.484 154.641V154.641Z" fill="#E2E7FA"/>
<path d="M451.988 177.379L452.646 181.761C452.737 182.373 453.191 182.87 453.794 183.012C455.876 183.491 457.863 184.315 459.671 185.452C460.2 185.785 460.877 185.76 461.377 185.387L464.935 182.744L468.37 186.178L465.75 189.725C465.383 190.223 465.355 190.893 465.682 191.418C466.815 193.233 467.63 195.233 468.102 197.32C468.239 197.927 468.737 198.387 469.353 198.479L473.734 199.137V203.988L469.361 204.634C468.746 204.727 468.251 205.187 468.113 205.794C467.635 207.878 466.808 209.862 465.67 211.672C465.338 212.2 465.366 212.877 465.738 213.377L468.37 216.936L464.936 220.37L461.389 217.75C460.893 217.38 460.223 217.346 459.695 217.67C457.882 218.802 455.89 219.63 453.806 220.102C453.199 220.239 452.738 220.737 452.646 221.353L451.988 225.734H447.137L446.479 221.362C446.392 220.745 445.937 220.245 445.331 220.102C443.25 219.624 441.261 218.807 439.454 217.67C438.925 217.338 438.246 217.366 437.745 217.738L434.19 220.37L430.755 216.936L433.375 213.389C433.742 212.891 433.77 212.221 433.443 211.695C432.31 209.881 431.492 207.881 431.021 205.794C430.883 205.187 430.388 204.727 429.773 204.634L425.391 203.988V200.052V199.125L429.761 198.479C430.376 198.387 430.874 197.927 431.012 197.32C431.49 195.236 432.313 193.251 433.452 191.442C433.787 190.916 433.765 190.239 433.395 189.736L430.754 186.178L434.189 182.743L437.735 185.375C438.233 185.743 438.904 185.77 439.429 185.443C441.242 184.311 443.234 183.483 445.319 183.012C445.926 182.874 446.386 182.376 446.478 181.761L447.133 177.391C448.856 177.385 450.231 177.379 451.988 177.379V177.379Z" fill="#E2E7FA"/>
<path d="M444.425 177.391V177.393H445.3H448.143L444.425 177.391ZM449.013 177.393L449.854 182.712C451.974 183.175 453.996 183.963 455.855 185.028C455.96 185.087 456.068 185.138 456.172 185.2L457.394 184.345C455.906 183.623 454.332 183.069 452.698 182.712L451.856 177.393H451.853H449.013ZM463.606 181.99L461.976 183.131L466.017 186.952L462.631 191.273C463.851 193.116 464.732 195.139 465.239 197.258L470.888 198.052H470.891V205.07H470.888L469.949 205.203L465.256 205.864C464.738 207.981 463.848 210.001 462.62 211.838L466.022 216.173L461.976 219.994L463.609 221.136H463.612L468.866 216.173L465.464 211.838C466.692 210.001 467.582 207.981 468.1 205.864L472.793 205.203L473.732 205.07H473.734V198.052H473.731L468.083 197.258C467.576 195.139 466.694 193.116 465.475 191.273L468.86 186.952L463.612 181.99L463.609 181.992L463.606 181.99ZM456.186 217.934C455.211 218.508 454.188 219.002 453.128 219.414C452.07 219.827 450.975 220.156 449.854 220.397L449.013 225.732H449.01V225.734H451.853V225.732H451.856L452.698 220.397C453.818 220.156 454.914 219.827 455.972 219.414C456.459 219.224 456.937 219.013 457.408 218.789L456.186 217.934Z" fill="#C4D2F0"/>
<path d="M458.094 201.563C458.094 206.274 454.274 210.094 449.563 210.094C444.851 210.094 441.031 206.274 441.031 201.563C441.031 196.851 444.851 193.031 449.563 193.031C454.274 193.031 458.094 196.851 458.094 201.563Z" fill="#A8C5F7"/>
<path d="M449.562 193.031C449.441 193.031 449.324 193.046 449.204 193.051C453.358 193.236 456.672 196.652 456.672 200.852C456.672 205.171 453.171 208.672 448.852 208.672C444.652 208.672 441.236 205.358 441.051 201.204C441.046 201.324 441.031 201.442 441.031 201.563C441.031 206.274 444.851 210.094 449.562 210.094C454.274 210.094 458.094 206.274 458.094 201.563C458.094 196.851 454.274 193.031 449.562 193.031Z" fill="#F8F8F8"/>
<path d="M449.563 193.031C444.851 193.031 441.031 196.851 441.031 201.563C441.036 204.534 442.587 207.29 445.125 208.836C444.31 207.502 443.878 205.969 443.875 204.406C443.875 199.695 447.695 195.875 452.406 195.875C453.973 195.879 455.508 196.314 456.844 197.133C455.299 194.589 452.539 193.035 449.563 193.031Z" fill="#91B8FB"/>
<path d="M395.531 143.266C393.168 143.266 391.266 145.168 391.266 147.531V161.75C391.266 164.113 393.168 166.016 395.531 166.016H398.375C396.012 166.016 394.109 164.113 394.109 161.75V147.531C394.109 145.168 396.012 143.266 398.375 143.266H395.531Z" fill="#F8F8F8"/>
<path d="M395.531 166.016C393.168 166.016 391.266 167.918 391.266 170.281V184.5C391.266 186.863 393.168 188.766 395.531 188.766H398.375C396.012 188.766 394.109 186.863 394.109 184.5V170.281C394.109 167.918 396.012 166.016 398.375 166.016H395.531Z" fill="#F8F8F8"/>
<path d="M395.531 188.766C393.168 188.766 391.266 190.668 391.266 193.031V207.25C391.266 209.613 393.168 211.516 395.531 211.516H398.375C396.012 211.516 394.109 209.613 394.109 207.25V193.031C394.109 190.668 396.012 188.766 398.375 188.766H395.531Z" fill="#F8F8F8"/>
<path d="M434.188 182.742L430.753 186.177L433.394 189.738C433.764 190.24 433.788 190.917 433.453 191.443C432.314 193.252 431.49 195.235 431.011 197.319C430.874 197.926 430.377 198.388 429.762 198.48L425.391 199.124V200.052V203.987L429.773 204.634C430.388 204.727 430.882 205.188 431.02 205.795C431.491 207.882 432.311 209.882 433.444 211.696C433.771 212.222 433.742 212.89 433.375 213.387L430.756 216.937L434.188 220.369L435.824 219.161L433.6 216.937L436.219 213.387C436.586 212.89 436.615 212.222 436.288 211.696C435.155 209.882 434.335 207.882 433.864 205.795C433.726 205.188 433.232 204.727 432.617 204.634L428.234 203.987V200.052V199.124L432.606 198.48C433.221 198.388 433.718 197.926 433.855 197.319C434.334 195.235 435.158 193.252 436.296 191.443C436.631 190.917 436.608 190.24 436.238 189.738L433.597 186.177L435.821 183.953L434.188 182.742Z" fill="#F8F8F8"/>
<path d="M395.534 141.844C392.408 141.844 389.844 144.408 389.844 147.534V161.744C389.844 163.447 390.621 164.965 391.818 166.01C390.62 167.056 389.844 168.575 389.844 170.278V184.5C389.844 186.203 390.62 187.723 391.818 188.768C390.62 189.814 389.844 191.331 389.844 193.034V207.244C389.844 210.371 392.408 212.935 395.534 212.935H430.606L428.848 215.329C428.431 215.894 428.489 216.678 428.984 217.175L433.95 222.141C434.445 222.64 435.229 222.702 435.796 222.288L439.376 219.633C440.789 220.425 442.363 221.111 443.986 221.538L444.644 225.951C444.751 226.646 445.35 227.157 446.052 227.156H453.073C453.775 227.157 454.374 226.646 454.481 225.951L455.136 221.53C456.651 221.145 458.349 220.428 459.766 219.641L463.329 222.288C463.896 222.702 464.68 222.64 465.175 222.141L470.141 217.175C470.636 216.678 470.694 215.894 470.277 215.329L467.638 211.752C468.431 210.371 469.104 208.7 469.546 207.139L473.951 206.481C474.645 206.374 475.156 205.775 475.156 205.073V198.052C475.156 197.35 474.646 196.751 473.951 196.644L469.555 195.983C469.116 194.419 468.44 192.774 467.65 191.354L470.277 187.785C470.694 187.22 470.636 186.436 470.141 185.939L465.175 180.973C464.678 180.478 463.894 180.42 463.329 180.837L462.362 181.551V170.279C462.362 168.576 461.587 167.056 460.39 166.01C461.587 164.965 462.362 163.447 462.362 161.745V147.534C462.362 144.408 459.801 141.844 456.675 141.844L395.534 141.844ZM395.534 144.69H409.745V164.588H395.534C393.934 164.588 392.69 163.344 392.69 161.744V147.534C392.69 145.934 393.934 144.69 395.534 144.69V144.69ZM412.588 144.69H456.675C458.275 144.69 459.519 145.934 459.519 147.534V161.744C459.519 163.344 458.275 164.588 456.675 164.588H412.588V144.69ZM402.638 150.378C400.299 150.378 398.378 152.299 398.378 154.638C398.378 156.977 400.299 158.912 402.638 158.912C404.977 158.912 406.912 156.977 406.912 154.638C406.912 152.299 404.977 150.378 402.638 150.378ZM402.638 153.222C403.44 153.222 404.068 153.836 404.068 154.638C404.068 155.44 403.44 156.068 402.638 156.068C401.836 156.068 401.222 155.44 401.222 154.638C401.222 153.836 401.836 153.222 402.638 153.222ZM419.706 153.222C418.921 153.218 418.282 153.853 418.279 154.638C418.274 155.429 418.915 156.071 419.706 156.068H452.401C453.192 156.071 453.833 155.429 453.828 154.638C453.825 153.853 453.186 153.218 452.401 153.222H419.706ZM395.534 167.435H409.745V187.347H395.534C393.934 187.347 392.69 186.1 392.69 184.5V170.278C392.69 168.678 393.934 167.435 395.534 167.435ZM412.588 167.435H456.675C458.275 167.435 459.519 168.678 459.519 170.278V183.381C458.154 182.637 456.629 181.986 455.145 181.565L454.481 177.174C454.379 176.475 453.779 175.958 453.073 175.958C441.95 175.966 430.831 175.968 419.705 175.968C418.914 175.965 418.273 176.608 418.277 177.399C418.281 178.184 418.92 178.818 419.705 178.815H444.399L443.988 181.586C442.403 181.998 440.776 182.682 439.361 183.469L435.795 180.839C435.23 180.422 434.446 180.48 433.949 180.975L428.983 185.941C428.607 186.319 428.486 186.862 428.631 187.349H412.587L412.588 167.435ZM402.638 173.122C400.299 173.122 398.378 175.057 398.378 177.396C398.378 179.735 400.299 181.656 402.638 181.656C404.977 181.656 406.912 179.735 406.912 177.396C406.912 175.057 404.977 173.122 402.638 173.122ZM402.638 175.966C403.44 175.966 404.068 176.594 404.068 177.396C404.068 178.198 403.44 178.813 402.638 178.813C401.836 178.813 401.222 178.198 401.222 177.396C401.222 176.594 401.836 175.966 402.638 175.966ZM451.845 178.801L452.465 182.925C452.55 183.502 452.978 183.969 453.545 184.103C455.504 184.553 457.375 185.329 459.077 186.4C459.574 186.712 460.211 186.689 460.682 186.338L464.031 183.85L467.264 187.083L464.798 190.421C464.452 190.889 464.426 191.52 464.734 192.015C465.801 193.722 466.567 195.605 467.011 197.569C467.141 198.14 467.609 198.573 468.189 198.66L472.313 199.28V203.845L468.197 204.453C467.618 204.54 467.152 204.974 467.022 205.545C466.572 207.506 465.794 209.374 464.723 211.077C464.41 211.574 464.436 212.211 464.787 212.682L467.264 216.031L464.031 219.264L460.693 216.798C460.227 216.449 459.596 216.418 459.099 216.722C457.393 217.788 455.518 218.567 453.556 219.011C452.985 219.14 452.552 219.609 452.465 220.188L451.845 224.312H447.28L446.661 220.196C446.579 219.616 446.151 219.145 445.58 219.011C443.622 218.561 441.75 217.792 440.048 216.722C439.551 216.41 438.911 216.436 438.44 216.786L435.094 219.263L431.861 216.031L434.327 212.693C434.673 212.224 434.699 211.593 434.391 211.099C433.325 209.391 432.555 207.508 432.111 205.545C431.982 204.973 431.516 204.54 430.937 204.453L426.813 203.845V200.14V199.268L430.926 198.66C431.505 198.573 431.973 198.14 432.103 197.569C432.553 195.607 433.328 193.74 434.4 192.037C434.715 191.542 434.694 190.905 434.346 190.432L431.861 187.082L435.093 183.85L438.431 186.327C438.9 186.673 439.531 186.699 440.025 186.391C441.732 185.325 443.606 184.546 445.568 184.103C446.14 183.973 446.573 183.504 446.66 182.925L447.276 178.812C448.898 178.807 450.192 178.801 451.845 178.801V178.801ZM395.534 190.19H409.745V210.091H395.534C393.934 210.091 392.69 208.844 392.69 207.244V193.034C392.69 191.434 393.934 190.19 395.534 190.19ZM412.588 190.19H430.62L431.489 191.371C430.696 192.786 430.028 194.425 429.584 195.986L425.185 196.644C424.486 196.746 423.966 197.346 423.966 198.052V198.724H419.706C418.921 198.721 418.282 199.355 418.279 200.141C418.275 200.93 418.916 201.571 419.706 201.568H423.966V205.073C423.966 205.779 424.486 206.379 425.185 206.481L429.576 207.136C429.852 208.119 430.226 209.124 430.656 210.091H412.588V190.19ZM449.557 191.501C444.019 191.501 439.501 196.019 439.501 201.557C439.501 207.095 444.019 211.613 449.557 211.613C455.095 211.613 459.624 207.095 459.624 201.557C459.624 196.019 455.095 191.501 449.557 191.501ZM449.557 194.345C453.558 194.345 456.778 197.556 456.778 201.557C456.778 205.558 453.558 208.769 449.557 208.769C445.556 208.769 442.345 205.558 442.345 201.557C442.345 197.556 445.556 194.345 449.557 194.345ZM402.638 195.878C400.299 195.878 398.378 197.802 398.378 200.141C398.378 202.48 400.299 204.401 402.638 204.401C404.977 204.401 406.912 202.48 406.912 200.141C406.912 197.802 404.977 195.878 402.638 195.878V195.878ZM402.638 198.724C403.44 198.724 404.068 199.339 404.068 200.141C404.068 200.943 403.44 201.568 402.638 201.568C401.836 201.568 401.222 200.943 401.222 200.141C401.222 199.339 401.836 198.724 402.638 198.724Z" fill="#66A0FE"/>
</svg>
