<svg width="192" height="156" viewBox="0 0 192 156" fill="none" xmlns="http://www.w3.org/2000/svg">
<path d="M191.286 28.1562V156H0V28.1562L95.6431 13.8008L191.286 28.1562Z" fill="#EBEDEC"/>
<path d="M191.286 0V28.1564H159.526L149.956 14.0782L159.526 0H191.286Z" fill="#EE3840"/>
<path d="M130.277 78.5703H58.977C56.3342 78.5703 54.1919 76.428 54.1919 73.7851C54.1919 71.1422 56.3342 69 58.977 69H130.277C132.92 69 135.063 71.1422 135.063 73.7851C135.063 76.428 132.92 78.5703 130.277 78.5703Z" fill="#A2A9AF"/>
<path d="M64.3399 101.097H41.1501C38.5072 101.097 36.365 98.9549 36.365 96.312C36.365 93.6691 38.5072 91.5269 41.1501 91.5269H64.3399C66.9827 91.5269 69.125 93.6691 69.125 96.312C69.125 98.9549 66.9827 101.097 64.3399 101.097Z" fill="#A2A9AF"/>
<path d="M107.238 101.097H84.0486C81.4057 101.097 79.2634 98.9549 79.2634 96.312C79.2634 93.6691 81.4057 91.5269 84.0486 91.5269H107.238C109.881 91.5269 112.023 93.6691 112.023 96.312C112.023 98.9549 109.881 101.097 107.238 101.097Z" fill="#A2A9AF"/>
<path d="M150.136 101.097H126.947C124.304 101.097 122.161 98.9549 122.161 96.312C122.161 93.6691 124.304 91.5269 126.947 91.5269H150.136C152.779 91.5269 154.921 93.6691 154.921 96.312C154.922 98.9549 152.779 101.097 150.136 101.097Z" fill="#A2A9AF"/>
<path d="M159.526 0H0V28.1564H159.526V0Z" fill="#4C5870"/>
<path d="M96 149L104.66 134L87.3397 134L96 149ZM94.5 122L94.5 135.5L97.5 135.5L97.5 122L94.5 122Z" fill="#4C5870"/>
</svg>
