<svg width="311" height="198" viewBox="0 0 311 198" fill="none" xmlns="http://www.w3.org/2000/svg">
<path d="M230.286 28.1567V156H39V28.1567L134.643 13.8013L230.286 28.1567Z" fill="#DADADA" fill-opacity="0.7"/>
<path d="M169.277 78.5703H97.977C95.3342 78.5703 93.1919 76.428 93.1919 73.7851C93.1919 71.1422 95.3342 69 97.977 69H169.277C171.92 69 174.063 71.1422 174.063 73.7851C174.063 76.428 171.92 78.5703 169.277 78.5703Z" fill="#CED8E1" fill-opacity="0.7"/>
<path d="M103.34 101.097H80.1501C77.5072 101.097 75.365 98.9549 75.365 96.312C75.365 93.6691 77.5072 91.5269 80.1501 91.5269H103.34C105.983 91.5269 108.125 93.6691 108.125 96.312C108.125 98.9549 105.983 101.097 103.34 101.097Z" fill="#CED8E1" fill-opacity="0.7"/>
<path d="M146.238 101.097H123.049C120.406 101.097 118.263 98.9549 118.263 96.312C118.263 93.6691 120.406 91.5269 123.049 91.5269H146.238C148.881 91.5269 151.023 93.6691 151.023 96.312C151.023 98.9549 148.881 101.097 146.238 101.097Z" fill="#CED8E1" fill-opacity="0.7"/>
<path d="M189.136 101.097H165.947C163.304 101.097 161.161 98.9549 161.161 96.312C161.161 93.6691 163.304 91.5269 165.947 91.5269H189.136C191.779 91.5269 193.921 93.6691 193.921 96.312C193.922 98.9549 191.779 101.097 189.136 101.097Z" fill="#CED8E1" fill-opacity="0.7"/>
<path d="M230.289 7.24792e-05L39 0V28.1564L230.289 28.1565V7.24792e-05Z" fill="#6A758D" fill-opacity="0.7"/>
<path d="M310.286 52.1567V180H119V52.1567L214.643 37.8013L310.286 52.1567Z" fill="#DADADA"/>
<path d="M249.277 102.57H177.977C175.334 102.57 173.192 100.428 173.192 97.7851C173.192 95.1422 175.334 93 177.977 93H249.277C251.92 93 254.063 95.1422 254.063 97.7851C254.063 100.428 251.92 102.57 249.277 102.57Z" fill="#CED8E1"/>
<path d="M183.34 125.097H160.15C157.507 125.097 155.365 122.955 155.365 120.312C155.365 117.669 157.507 115.527 160.15 115.527H183.34C185.983 115.527 188.125 117.669 188.125 120.312C188.125 122.955 185.983 125.097 183.34 125.097Z" fill="#CED8E1"/>
<path d="M226.238 125.097H203.049C200.406 125.097 198.263 122.955 198.263 120.312C198.263 117.669 200.406 115.527 203.049 115.527H226.238C228.881 115.527 231.023 117.669 231.023 120.312C231.023 122.955 228.881 125.097 226.238 125.097Z" fill="#CED8E1"/>
<path d="M269.136 125.097H245.947C243.304 125.097 241.161 122.955 241.161 120.312C241.161 117.669 243.304 115.527 245.947 115.527H269.136C271.779 115.527 273.921 117.669 273.921 120.312C273.922 122.955 271.779 125.097 269.136 125.097Z" fill="#CED8E1"/>
<path d="M310.289 24.0001L119 24V52.1564L310.289 52.1565V24.0001Z" fill="#6A758D"/>
<path d="M191.286 69.3554V197.199H0V69.3554L95.6431 55L191.286 69.3554Z" fill="#EBEDEC"/>
<path d="M191.286 41V69.1564H159.526L149.956 55.0782L159.526 41H191.286Z" fill="#EE3840"/>
<path d="M159.526 41H0V69.1564H159.526V41Z" fill="#4C5870"/>
<path d="M88.5528 138.064C88.0705 137.643 87.5358 137.285 86.962 136.999C86.3149 136.674 85.6488 136.387 84.9673 136.141C84.4939 135.977 84.09 135.826 83.7557 135.687C83.4622 135.569 83.1797 135.426 82.9114 135.258C82.7056 135.135 82.5333 134.962 82.4097 134.756C82.2988 134.55 82.244 134.318 82.2506 134.084C82.2463 133.883 82.2908 133.685 82.3804 133.506C82.4699 133.327 82.6018 133.172 82.7646 133.055C83.2726 132.752 83.8632 132.615 84.4532 132.664C85.2065 132.661 85.9578 132.743 86.6926 132.909C87.3325 133.05 87.959 133.246 88.5649 133.496L89.3237 130.559C88.852 130.358 88.3651 130.194 87.8675 130.07C87.1484 129.888 86.4158 129.766 85.6769 129.703V127.157H82.5932V129.8C81.9439 129.908 81.3159 130.119 80.7332 130.425C80.2439 130.683 79.8112 131.037 79.4605 131.465C79.1365 131.868 78.8916 132.329 78.7385 132.823C78.5826 133.326 78.5042 133.85 78.506 134.377C78.4827 134.96 78.5955 135.539 78.8356 136.07C79.0757 136.601 79.4363 137.069 79.8889 137.436C80.3143 137.785 80.7832 138.077 81.2838 138.305C81.7979 138.542 82.3241 138.758 82.8624 138.954C83.417 139.15 83.9065 139.333 84.3308 139.504C84.6973 139.647 85.0496 139.823 85.3834 140.031C85.6341 140.185 85.8507 140.389 86.0196 140.63C86.1712 140.867 86.2479 141.145 86.2398 141.426C86.2498 141.646 86.2047 141.866 86.1085 142.064C86.0124 142.263 85.8683 142.435 85.6892 142.564C85.0613 142.893 84.3515 143.033 83.6456 142.968C82.7974 142.972 81.9528 142.857 81.1369 142.625C80.4355 142.43 79.7519 142.177 79.0934 141.866L78.041 144.681C78.5793 144.935 79.1307 145.159 79.693 145.354C80.6319 145.662 81.6067 145.847 82.5932 145.905V148.817H85.6769V145.831C86.3803 145.732 87.0625 145.517 87.6961 145.195C88.2036 144.932 88.6563 144.575 89.03 144.143C89.3628 143.753 89.6126 143.3 89.7641 142.81C89.9096 142.339 89.9839 141.848 89.9845 141.355C89.9987 140.706 89.8691 140.063 89.6051 139.471C89.3538 138.935 88.9957 138.457 88.5528 138.064V138.064Z" fill="#1D75B8"/>
<path d="M100.128 139.601C99.823 142.652 98.6582 145.554 96.769 147.969C94.8798 150.384 92.3439 152.213 89.4561 153.244C86.5683 154.275 83.4473 154.465 80.4558 153.792C77.4643 153.119 74.7252 151.611 72.557 149.443C70.3889 147.275 68.8807 144.536 68.2077 141.544C67.5348 138.553 67.7248 135.432 68.7556 132.544C69.7864 129.656 71.6157 127.12 74.0309 125.231C76.4461 123.342 79.3478 122.177 82.3989 121.872C81.7792 119.864 81.4015 117.79 81.274 115.693C77.0968 116.206 73.1478 117.883 69.8774 120.532C66.6069 123.181 64.1464 126.695 62.7765 130.675C61.4065 134.654 61.1822 138.938 62.1291 143.039C63.0759 147.14 65.1559 150.892 68.1318 153.868C71.1078 156.844 74.86 158.924 78.9608 159.871C83.0615 160.818 87.3458 160.593 91.3252 159.223C95.3047 157.854 98.8191 155.393 101.468 152.123C104.117 148.852 105.794 144.903 106.307 140.726C104.21 140.598 102.136 140.221 100.128 139.601V139.601Z" fill="#1D75B8"/>
<path d="M107.986 91.5532C103.544 91.5532 99.2018 92.8705 95.5082 95.3385C91.8146 97.8064 88.9358 101.314 87.2358 105.418C85.5359 109.522 85.0911 114.038 85.9577 118.395C86.8243 122.752 88.9635 126.754 92.1046 129.895C95.2457 133.037 99.2478 135.176 103.605 136.042C107.962 136.909 112.478 136.464 116.582 134.764C120.686 133.064 124.194 130.185 126.662 126.492C129.13 122.798 130.447 118.456 130.447 114.014C130.44 108.059 128.072 102.35 123.861 98.1391C119.65 93.9285 113.941 91.56 107.986 91.5532V91.5532ZM113.74 118.836C113.586 119.326 113.335 119.78 113.003 120.171C112.628 120.602 112.175 120.958 111.668 121.22C111.036 121.544 110.353 121.759 109.65 121.856V124.843H106.566V121.931C105.581 121.875 104.607 121.69 103.67 121.382C103.108 121.187 102.556 120.962 102.017 120.709L103.067 117.894C103.727 118.202 104.411 118.456 105.112 118.653C105.928 118.883 106.773 118.997 107.62 118.992C108.327 119.057 109.037 118.917 109.666 118.589C109.844 118.46 109.988 118.288 110.084 118.09C110.18 117.892 110.225 117.673 110.215 117.453C110.222 117.171 110.145 116.894 109.994 116.656C109.826 116.415 109.61 116.212 109.359 116.059C109.025 115.85 108.672 115.673 108.304 115.531C107.879 115.359 107.389 115.176 106.835 114.977C106.296 114.783 105.774 114.568 105.258 114.331C104.758 114.102 104.29 113.811 103.864 113.465C103.41 113.097 103.049 112.629 102.809 112.097C102.569 111.566 102.456 110.985 102.48 110.402C102.478 109.875 102.556 109.35 102.712 108.847C102.867 108.354 103.112 107.894 103.433 107.49C103.785 107.063 104.219 106.71 104.709 106.451C105.29 106.145 105.917 105.934 106.566 105.827V103.184H109.65V105.73C110.388 105.793 111.121 105.915 111.84 106.096C112.339 106.221 112.826 106.384 113.299 106.586L112.54 109.519C111.933 109.272 111.306 109.076 110.667 108.933C109.932 108.768 109.181 108.687 108.428 108.69C107.837 108.64 107.246 108.777 106.738 109.083C106.576 109.2 106.444 109.355 106.355 109.534C106.266 109.713 106.222 109.911 106.226 110.111C106.221 110.345 106.275 110.577 106.383 110.784C106.507 110.99 106.681 111.162 106.888 111.285C107.155 111.452 107.436 111.595 107.728 111.71C108.062 111.85 108.471 112.001 108.939 112.167C109.621 112.412 110.288 112.698 110.936 113.023C111.51 113.31 112.045 113.668 112.529 114.089C112.995 114.499 113.366 115.007 113.613 115.576C113.86 116.145 113.979 116.762 113.961 117.383C113.959 117.876 113.885 118.365 113.74 118.836V118.836Z" fill="#2D3E50"/>
</svg>
