<svg width="311" height="197" viewBox="0 0 311 197" fill="none" xmlns="http://www.w3.org/2000/svg">
<path d="M230.286 28.1567V156H39V28.1567L134.643 13.8013L230.286 28.1567Z" fill="#DADADA" fill-opacity="0.7"/>
<path d="M169.277 78.5703H97.977C95.3342 78.5703 93.1919 76.428 93.1919 73.7851C93.1919 71.1422 95.3342 69 97.977 69H169.277C171.92 69 174.063 71.1422 174.063 73.7851C174.063 76.428 171.92 78.5703 169.277 78.5703Z" fill="#CED8E1" fill-opacity="0.7"/>
<path d="M103.34 101.097H80.1501C77.5072 101.097 75.365 98.9549 75.365 96.312C75.365 93.6691 77.5072 91.5269 80.1501 91.5269H103.34C105.983 91.5269 108.125 93.6691 108.125 96.312C108.125 98.9549 105.983 101.097 103.34 101.097Z" fill="#CED8E1" fill-opacity="0.7"/>
<path d="M146.238 101.097H123.049C120.406 101.097 118.263 98.9549 118.263 96.312C118.263 93.6691 120.406 91.5269 123.049 91.5269H146.238C148.881 91.5269 151.023 93.6691 151.023 96.312C151.023 98.9549 148.881 101.097 146.238 101.097Z" fill="#CED8E1" fill-opacity="0.7"/>
<path d="M189.136 101.097H165.947C163.304 101.097 161.161 98.9549 161.161 96.312C161.161 93.6691 163.304 91.5269 165.947 91.5269H189.136C191.779 91.5269 193.921 93.6691 193.921 96.312C193.922 98.9549 191.779 101.097 189.136 101.097Z" fill="#CED8E1" fill-opacity="0.7"/>
<path d="M230.289 7.24792e-05L39 0V28.1564L230.289 28.1565V7.24792e-05Z" fill="#6A758D" fill-opacity="0.7"/>
<path d="M310.286 52.1567V180H119V52.1567L214.643 37.8013L310.286 52.1567Z" fill="#DADADA"/>
<path d="M249.277 102.57H177.977C175.334 102.57 173.192 100.428 173.192 97.7851C173.192 95.1422 175.334 93 177.977 93H249.277C251.92 93 254.063 95.1422 254.063 97.7851C254.063 100.428 251.92 102.57 249.277 102.57Z" fill="#CED8E1"/>
<path d="M183.34 125.097H160.15C157.507 125.097 155.365 122.955 155.365 120.312C155.365 117.669 157.507 115.527 160.15 115.527H183.34C185.983 115.527 188.125 117.669 188.125 120.312C188.125 122.955 185.983 125.097 183.34 125.097Z" fill="#CED8E1"/>
<path d="M226.238 125.097H203.049C200.406 125.097 198.263 122.955 198.263 120.312C198.263 117.669 200.406 115.527 203.049 115.527H226.238C228.881 115.527 231.023 117.669 231.023 120.312C231.023 122.955 228.881 125.097 226.238 125.097Z" fill="#CED8E1"/>
<path d="M269.136 125.097H245.947C243.304 125.097 241.161 122.955 241.161 120.312C241.161 117.669 243.304 115.527 245.947 115.527H269.136C271.779 115.527 273.921 117.669 273.921 120.312C273.922 122.955 271.779 125.097 269.136 125.097Z" fill="#CED8E1"/>
<path d="M310.289 24.0001L119 24V52.1564L310.289 52.1565V24.0001Z" fill="#6A758D"/>
<path d="M191.286 69.1562V197H0V69.1562L95.6431 54.8008L191.286 69.1562Z" fill="#EBEDEC"/>
<path d="M191.286 41V69.1564H159.526L149.956 55.0782L159.526 41H191.286Z" fill="#EE3840"/>
<path d="M130.277 119.57H58.977C56.3342 119.57 54.1919 117.428 54.1919 114.785C54.1919 112.142 56.3342 110 58.977 110H130.277C132.92 110 135.063 112.142 135.063 114.785C135.063 117.428 132.92 119.57 130.277 119.57Z" fill="#A2A9AF"/>
<path d="M64.3399 142.097H41.1501C38.5072 142.097 36.365 139.955 36.365 137.312C36.365 134.669 38.5072 132.527 41.1501 132.527H64.3399C66.9827 132.527 69.125 134.669 69.125 137.312C69.125 139.955 66.9827 142.097 64.3399 142.097Z" fill="#A2A9AF"/>
<path d="M107.238 142.097H84.0486C81.4057 142.097 79.2634 139.955 79.2634 137.312C79.2634 134.669 81.4057 132.527 84.0486 132.527H107.238C109.881 132.527 112.023 134.669 112.023 137.312C112.023 139.955 109.881 142.097 107.238 142.097Z" fill="#A2A9AF"/>
<path d="M150.136 142.097H126.947C124.304 142.097 122.161 139.955 122.161 137.312C122.161 134.669 124.304 132.527 126.947 132.527H150.136C152.779 132.527 154.921 134.669 154.921 137.312C154.922 139.955 152.779 142.097 150.136 142.097Z" fill="#A2A9AF"/>
<path d="M159.526 41H0V69.1564H159.526V41Z" fill="#4C5870"/>
</svg>
