<svg width="410" height="390" viewBox="0 0 410 390" fill="none" xmlns="http://www.w3.org/2000/svg">
<path d="M205 6C91.6094 6 0 91.8 0 198C0 304.2 91.6094 390 205 390C318.391 390 410 304.2 410 198C410 91.8 318.391 6 205 6Z" fill="#6F72F7"/>
<path d="M61.5952 63.5154C58.9589 57.4985 57.5059 51.0303 57.3154 44.464C57.3178 43.2209 57.3941 41.9791 57.5439 40.7451C58.4692 33.0113 62.256 25.904 68.1588 20.8222C74.0616 15.7404 81.6528 13.0521 89.4382 13.2866C97.2237 13.5211 104.639 16.6613 110.226 22.0892C115.812 27.5171 119.164 34.8394 119.622 42.6149C119.664 43.2175 119.685 43.8407 119.685 44.464C119.685 61.6871 105.723 88.1142 88.5 88.1142C81.9764 88.1142 75.9514 84.3537 70.9652 78.7234C74.4152 79.3902 77.9223 79.7173 81.4362 79.6999H81.6232C83.6694 81.0495 86.05 81.8046 88.5 81.8813C100.55 81.8813 113.452 59.9212 113.452 44.464C113.452 43.9445 113.431 43.4251 113.389 42.9058C101.785 42.9146 90.3911 39.8078 80.3973 33.9098C75.2216 36.5814 69.7073 38.5384 64.0053 39.727C63.6949 41.2868 63.5418 42.8737 63.5481 44.464C63.5481 51.4655 66.2076 59.7966 70.2172 66.8189C67.239 66.0118 64.3502 64.905 61.5952 63.5154Z" fill="#CCDBE2"/>
<path d="M129.036 47.0607C128.695 47.0607 128.358 46.9936 128.042 46.8631C127.727 46.7326 127.441 46.5413 127.2 46.3001C126.959 46.059 126.767 45.7727 126.637 45.4576C126.506 45.1425 126.439 44.8048 126.439 44.4637C126.439 43.6775 126.42 42.9096 126.361 42.1042C125.908 34.7801 123.339 27.745 118.967 21.8519C114.594 15.9589 108.606 11.4611 101.728 8.90406C94.8496 6.34705 87.3773 5.84069 80.2171 7.44637C73.0569 9.05206 66.5164 12.7008 61.3889 17.9501C55.5698 23.9321 51.8652 31.652 50.8396 39.9342C50.6633 41.4377 50.5719 42.9499 50.5658 44.4637C50.5764 46.9371 50.7933 49.4054 51.214 51.8428L51.6198 54.245L49.2489 54.8039C47.8419 55.1368 46.5894 55.9373 45.6964 57.0745C44.8034 58.2117 44.3227 59.6182 44.3329 61.0641C44.3321 62.7742 45.0096 64.4149 46.2168 65.6262C47.4241 66.8374 49.0625 67.5203 50.7727 67.5251C52.4366 67.5359 54.0367 66.8861 55.222 65.7183L56.6037 64.3549L58.3029 65.2934C66.173 69.7727 75.178 71.8614 84.2164 71.3038C84.7085 70.3698 85.4908 69.6209 86.4455 69.1702C87.4001 68.7194 88.4755 68.5912 89.5094 68.8047C90.5433 69.0183 91.4798 69.562 92.1777 70.3541C92.8757 71.1462 93.2973 72.1437 93.3791 73.1963C93.4608 74.2488 93.1983 75.2994 92.631 76.1898C92.0637 77.0802 91.2224 77.762 90.2339 78.1327C89.2453 78.5033 88.1631 78.5426 87.1503 78.2447C86.1375 77.9468 85.2489 77.3277 84.6185 76.4809C83.5482 76.5353 82.4873 76.574 81.4465 76.574C73.0517 76.6303 64.7739 74.6038 57.3544 70.6759C55.4214 72.0148 53.124 72.7279 50.7727 72.7191C48.1308 72.7139 45.5689 71.8114 43.5071 70.1595C41.4453 68.5076 40.0058 66.2043 39.4246 63.6271C38.8433 61.0499 39.1548 58.3517 40.3079 55.9747C41.4611 53.5977 43.3875 51.6829 45.7714 50.5442C45.5098 48.5278 45.3763 46.4969 45.3717 44.4636C45.3782 42.7519 45.4808 41.0419 45.6791 39.3417C46.8363 29.9117 51.0517 21.1208 57.6801 14.3143C63.5087 8.34872 70.9428 4.20194 79.081 2.37664C87.2192 0.551332 95.7121 1.12588 103.53 4.03064C111.349 6.9354 118.156 12.0456 123.128 18.7419C128.101 25.4382 131.023 33.433 131.543 41.7572C131.61 42.6519 131.633 43.5477 131.633 44.4637C131.633 44.8047 131.566 45.1425 131.436 45.4576C131.305 45.7726 131.114 46.0589 130.873 46.3001C130.632 46.5413 130.345 46.7326 130.03 46.8631C129.715 46.9936 129.377 47.0607 129.036 47.0607Z" fill="#FFB067"/>
<path d="M29.6556 114.826C31.4326 108.31 34.6969 104.739 41.2064 102.73C47.1362 100.742 65.43 94.3143 70.721 92.2568C74.9416 100.056 81.0554 106.669 88.5 111.487C95.9447 106.669 102.058 100.056 106.279 92.2568C111.57 94.3143 129.864 100.742 135.794 102.73C142.303 104.739 145.567 108.31 147.344 114.826C149.355 122.199 149.714 130.062 149.714 137.667H27.2855C27.2855 130.062 27.6451 122.199 29.6556 114.826ZM43.1014 124.411H60.0245C60.7726 124.411 61.49 124.113 62.019 123.584C62.5479 123.056 62.8451 122.338 62.8451 121.59C62.8451 120.842 62.5479 120.125 62.019 119.596C61.49 119.067 60.7726 118.77 60.0245 118.77H43.1014C42.3533 118.77 41.6359 119.067 41.107 119.596C40.578 120.125 40.2809 120.842 40.2809 121.59C40.2809 122.338 40.578 123.056 41.107 123.584C41.6359 124.113 42.3533 124.411 43.1014 124.411Z" fill="#CCDBE2"/>
<path d="M103.285 48.0991C103.973 48.0991 104.634 48.3727 105.121 48.8598C105.608 49.3468 105.882 50.0074 105.882 50.6961C105.882 51.3849 105.608 52.0455 105.121 52.5325C104.634 53.0195 103.973 53.2932 103.285 53.2932H96.9757C96.2869 53.2932 95.6263 53.0195 95.1393 52.5325C94.6523 52.0455 94.3786 51.3849 94.3786 50.6961C94.3786 50.0074 94.6523 49.3468 95.1393 48.8598C95.6263 48.3727 96.2869 48.0991 96.9757 48.0991H103.285Z" fill="#FFB067"/>
<path d="M80.0243 48.0991C80.713 48.0991 81.3736 48.3727 81.8606 48.8598C82.3477 49.3468 82.6213 50.0074 82.6213 50.6961C82.6213 51.3849 82.3477 52.0455 81.8606 52.5325C81.3736 53.0195 80.713 53.2932 80.0243 53.2932H73.7154C73.0267 53.2932 72.3661 53.0195 71.8791 52.5325C71.392 52.0455 71.1184 51.3849 71.1184 50.6961C71.1184 50.0074 71.392 49.3468 71.8791 48.8598C72.3661 48.3727 73.0267 48.0991 73.7154 48.0991H80.0243Z" fill="#FFB067"/>
<path d="M88.4 285.862H321.6C330.213 285.862 337.5 278.478 337.5 269.752V124.088C337.5 115.362 330.213 107.978 321.6 107.978H88.4C79.7875 107.978 72.5 115.362 72.5 124.088V269.752C72.5 278.478 79.7875 285.862 88.4 285.862Z" fill="white"/>
<path d="M75.8125 282.507H334.188V124.76C334.188 117.376 328.225 111.335 320.938 111.335H89.0625C81.775 111.335 75.8125 117.376 75.8125 124.76V282.507Z" fill="#384454"/>
<path d="M89.0626 124.758H320.938V265.723H89.0626V124.758Z" fill="#4F617F"/>
<path d="M72.5 306H337.5C352.075 306 364 293.917 364 279.149H46C46 293.917 57.925 306 72.5 306Z" fill="#CCDBE2"/>
<path d="M181.15 285.862H222.225C224.212 285.862 225.537 285.191 226.862 283.848L231.5 279.149H171.875L176.512 283.848C177.837 285.191 179.162 285.862 181.15 285.862Z" fill="#A0B5BA"/>
<path d="M201.688 121.405C199.858 121.405 198.375 119.902 198.375 118.048C198.375 116.195 199.858 114.692 201.688 114.692C203.517 114.692 205 116.195 205 118.048C205 119.902 203.517 121.405 201.688 121.405Z" fill="#1D2226"/>
</svg>
