<svg width="139" height="139" viewBox="0 0 139 139" fill="none" xmlns="http://www.w3.org/2000/svg">
<path d="M96.4048 63.5154C99.0411 57.4985 100.494 51.0303 100.685 44.464C100.682 43.2209 100.606 41.9791 100.456 40.7451C99.5308 33.0113 95.744 25.904 89.8412 20.8222C83.9384 15.7404 76.3472 13.0521 68.5618 13.2866C60.7763 13.5211 53.3607 16.6613 47.7744 22.0892C42.1882 27.5171 38.836 34.8394 38.3778 42.6149C38.3362 43.2175 38.3154 43.8407 38.3154 44.464C38.3154 61.6871 52.2769 88.1142 69.5 88.1142C76.0236 88.1142 82.0486 84.3537 87.0348 78.7234C83.5848 79.3902 80.0777 79.7173 76.5638 79.6999H76.3768C74.3306 81.0495 71.95 81.8046 69.5 81.8813C57.45 81.8813 44.5482 59.9212 44.5482 44.464C44.5482 43.9445 44.5689 43.4251 44.6105 42.9058C56.2149 42.9146 67.6089 39.8078 77.6027 33.9098C82.7784 36.5814 88.2927 38.5384 93.9947 39.727C94.3051 41.2868 94.4582 42.8737 94.4519 44.464C94.4519 51.4655 91.7924 59.7966 87.7828 66.8189C90.761 66.0118 93.6498 64.905 96.4048 63.5154Z" fill="#CCDBE2"/>
<path d="M28.9637 47.0607C29.3048 47.0607 29.6425 46.9936 29.9576 46.8631C30.2727 46.7326 30.559 46.5413 30.8001 46.3001C31.0413 46.059 31.2326 45.7727 31.3631 45.4576C31.4936 45.1425 31.5607 44.8048 31.5607 44.4637C31.5607 43.6775 31.58 42.9096 31.6389 42.1042C32.0922 34.7801 34.6608 27.745 39.0333 21.8519C43.4057 15.9589 49.3942 11.4611 56.2723 8.90406C63.1504 6.34705 70.6227 5.84069 77.7829 7.44637C84.9431 9.05206 91.4836 12.7008 96.6111 17.9501C102.43 23.9321 106.135 31.652 107.16 39.9342C107.337 41.4377 107.428 42.9499 107.434 44.4637C107.424 46.9371 107.207 49.4054 106.786 51.8428L106.38 54.245L108.751 54.8039C110.158 55.1368 111.411 55.9373 112.304 57.0745C113.197 58.2117 113.677 59.6182 113.667 61.0641C113.668 62.7742 112.99 64.4149 111.783 65.6262C110.576 66.8374 108.937 67.5203 107.227 67.5251C105.563 67.5359 103.963 66.8861 102.778 65.7183L101.396 64.3549L99.6971 65.2934C91.827 69.7727 82.822 71.8614 73.7836 71.3038C73.2915 70.3698 72.5092 69.6209 71.5545 69.1702C70.5999 68.7194 69.5245 68.5912 68.4906 68.8047C67.4567 69.0183 66.5202 69.562 65.8223 70.3541C65.1243 71.1462 64.7027 72.1437 64.6209 73.1963C64.5392 74.2488 64.8017 75.2994 65.369 76.1898C65.9363 77.0802 66.7776 77.762 67.7661 78.1327C68.7547 78.5033 69.8369 78.5426 70.8497 78.2447C71.8625 77.9468 72.7511 77.3277 73.3815 76.4809C74.4518 76.5353 75.5127 76.574 76.5535 76.574C84.9483 76.6303 93.2261 74.6038 100.646 70.6759C102.579 72.0148 104.876 72.7279 107.227 72.7191C109.869 72.7139 112.431 71.8114 114.493 70.1595C116.555 68.5076 117.994 66.2043 118.575 63.6271C119.157 61.0499 118.845 58.3517 117.692 55.9747C116.539 53.5977 114.613 51.6829 112.229 50.5442C112.49 48.5278 112.624 46.4969 112.628 44.4636C112.622 42.7519 112.519 41.0419 112.321 39.3417C111.164 29.9117 106.948 21.1208 100.32 14.3143C94.4913 8.34872 87.0572 4.20194 78.919 2.37664C70.7808 0.551332 62.2879 1.12588 54.4697 4.03064C46.6515 6.9354 39.8437 12.0456 34.8716 18.7419C29.8995 25.4382 26.9765 33.433 26.457 41.7572C26.3901 42.6519 26.3668 43.5477 26.3668 44.4637C26.3667 44.8047 26.4339 45.1425 26.5644 45.4576C26.6949 45.7726 26.8862 46.0589 27.1273 46.3001C27.3685 46.5413 27.6548 46.7326 27.9699 46.8631C28.285 46.9936 28.6227 47.0607 28.9637 47.0607Z" fill="#FFB067"/>
<path d="M128.344 114.826C126.567 108.31 123.303 104.739 116.794 102.73C110.864 100.742 92.57 94.3143 87.279 92.2568C83.0584 100.056 76.9446 106.669 69.5 111.487C62.0553 106.669 55.9416 100.056 51.721 92.2568C46.43 94.3143 28.136 100.742 22.2064 102.73C15.6968 104.739 12.4326 108.31 10.6555 114.826C8.64512 122.199 8.28552 130.062 8.28552 137.667H130.714C130.714 130.062 130.355 122.199 128.344 114.826ZM114.899 124.411H97.9755C97.2274 124.411 96.51 124.113 95.981 123.584C95.4521 123.056 95.1549 122.338 95.1549 121.59C95.1549 120.842 95.4521 120.125 95.981 119.596C96.51 119.067 97.2274 118.77 97.9755 118.77H114.899C115.647 118.77 116.364 119.067 116.893 119.596C117.422 120.125 117.719 120.842 117.719 121.59C117.719 122.338 117.422 123.056 116.893 123.584C116.364 124.113 115.647 124.411 114.899 124.411Z" fill="#CCDBE2"/>
<path d="M54.7154 48.0991C54.0267 48.0991 53.3661 48.3727 52.8791 48.8598C52.392 49.3468 52.1184 50.0074 52.1184 50.6961C52.1184 51.3849 52.392 52.0455 52.8791 52.5325C53.3661 53.0195 54.0267 53.2932 54.7154 53.2932H61.0243C61.7131 53.2932 62.3737 53.0195 62.8607 52.5325C63.3477 52.0455 63.6214 51.3849 63.6214 50.6961C63.6214 50.0074 63.3477 49.3468 62.8607 48.8598C62.3737 48.3727 61.7131 48.0991 61.0243 48.0991H54.7154Z" fill="#FFB067"/>
<path d="M77.9757 48.0991C77.287 48.0991 76.6264 48.3727 76.1394 48.8598C75.6523 49.3468 75.3787 50.0074 75.3787 50.6961C75.3787 51.3849 75.6523 52.0455 76.1394 52.5325C76.6264 53.0195 77.287 53.2932 77.9757 53.2932H84.2846C84.9733 53.2932 85.6339 53.0195 86.1209 52.5325C86.608 52.0455 86.8816 51.3849 86.8816 50.6961C86.8816 50.0074 86.608 49.3468 86.1209 48.8598C85.6339 48.3727 84.9733 48.0991 84.2846 48.0991H77.9757Z" fill="#FFB067"/>
</svg>
