<svg width="318" height="199" viewBox="0 0 318 199" fill="none" xmlns="http://www.w3.org/2000/svg">
<path d="M275.6 178.862H42.4C33.7875 178.862 26.5 171.478 26.5 162.752V17.0883C26.5 8.3619 33.7875 0.978027 42.4 0.978027H275.6C284.212 0.978027 291.5 8.3619 291.5 17.0883V162.752C291.5 171.478 284.212 178.862 275.6 178.862Z" fill="white"/>
<path d="M288.188 175.507H29.8125V17.7602C29.8125 10.3763 35.775 4.33496 43.0625 4.33496H274.938C282.225 4.33496 288.188 10.3763 288.188 17.7602V175.507Z" fill="#384454"/>
<path d="M274.937 17.7583H43.0624V158.723H274.937V17.7583Z" fill="#4F617F"/>
<path d="M291.5 199H26.5C11.925 199 0 186.917 0 172.149H318C318 186.917 306.075 199 291.5 199Z" fill="#CCDBE2"/>
<path d="M182.85 178.862H141.775C139.788 178.862 138.463 178.191 137.138 176.848L132.5 172.149H192.125L187.488 176.848C186.163 178.191 184.838 178.862 182.85 178.862Z" fill="#A0B5BA"/>
<path d="M162.312 14.4045C164.142 14.4045 165.625 12.9018 165.625 11.0482C165.625 9.19456 164.142 7.69189 162.312 7.69189C160.483 7.69189 159 9.19456 159 11.0482C159 12.9018 160.483 14.4045 162.312 14.4045Z" fill="#1D2226"/>
</svg>
