<svg width="414" height="414" viewBox="0 0 414 414" fill="none" xmlns="http://www.w3.org/2000/svg">
<path d="M207 6.36768C321.497 6.36768 414 97.4479 414 210.184C414 322.919 321.497 413.999 207 413.999C92.5031 413.999 0 322.919 0 210.184C0 97.4479 92.5031 6.36768 207 6.36768Z" fill="#5991EA"/>
<path d="M351.804 67.4243C354.466 61.0371 355.933 54.1708 356.125 47.2004C356.123 45.8809 356.046 44.5627 355.895 43.2527C354.96 35.043 351.137 27.4983 345.176 22.1037C339.216 16.7091 331.551 13.8554 323.689 14.1044C315.828 14.3533 308.34 17.6868 302.699 23.4487C297.058 29.2106 293.673 36.9835 293.211 45.2375C293.169 45.8772 293.148 46.5388 293.148 47.2004C293.148 65.4835 307.245 93.5369 324.637 93.5369C331.224 93.5369 337.308 89.545 342.342 83.5682C338.859 84.2761 335.317 84.6233 331.769 84.6048H331.58C329.514 86.0374 327.11 86.839 324.637 86.9205C312.469 86.9205 299.441 63.6089 299.441 47.2004C299.441 46.649 299.462 46.0976 299.504 45.5463C311.222 45.5556 322.727 42.2577 332.818 35.9967C338.044 38.8328 343.613 40.9102 349.37 42.172C349.684 43.8277 349.838 45.5123 349.832 47.2004C349.832 54.6328 347.146 63.4766 343.098 70.931C346.105 70.0743 349.022 68.8994 351.804 67.4243V67.4243Z" fill="#CCDBE2"/>
<path d="M283.705 49.9569C284.049 49.9569 284.39 49.8857 284.708 49.7471C285.027 49.6086 285.316 49.4055 285.559 49.1495C285.803 48.8935 285.996 48.5896 286.128 48.2551C286.259 47.9207 286.327 47.5622 286.327 47.2001C286.327 46.3655 286.347 45.5503 286.406 44.6954C286.864 36.9206 289.458 29.4525 293.873 23.1968C298.288 16.9411 304.335 12.1665 311.28 9.45211C318.225 6.73774 325.77 6.20022 333 7.90472C340.23 9.60922 346.835 13.4825 352.012 19.0548C357.888 25.4049 361.629 33.6 362.664 42.3918C362.842 43.9879 362.935 45.5932 362.941 47.2001C362.93 49.8258 362.711 52.4459 362.286 55.0333L361.877 57.5833L364.271 58.1767C365.691 58.5301 366.956 59.3798 367.858 60.587C368.76 61.7941 369.245 63.2872 369.235 64.8221C369.235 66.6375 368.551 68.3791 367.332 69.6649C366.113 70.9507 364.459 71.6757 362.732 71.6808C361.052 71.6922 359.436 71.0024 358.239 69.7628L356.844 68.3155L355.128 69.3116C347.181 74.0667 338.089 76.2838 328.962 75.692C328.465 74.7004 327.675 73.9055 326.711 73.4271C325.747 72.9486 324.661 72.8124 323.617 73.0391C322.573 73.2658 321.628 73.843 320.923 74.6839C320.218 75.5247 319.792 76.5836 319.71 77.7009C319.627 78.8182 319.892 79.9335 320.465 80.8787C321.038 81.8238 321.888 82.5477 322.886 82.9411C323.884 83.3345 324.977 83.3763 325.999 83.06C327.022 82.7437 327.919 82.0866 328.556 81.1876C329.637 81.2454 330.708 81.2865 331.759 81.2865C340.236 81.3463 348.594 79.1951 356.086 75.0255C358.038 76.4467 360.358 77.2037 362.732 77.1943C365.4 77.1888 367.987 76.2308 370.068 74.4772C372.15 72.7237 373.604 70.2786 374.191 67.5428C374.778 64.807 374.463 61.9428 373.299 59.4195C372.134 56.8962 370.189 54.8636 367.782 53.6548C368.046 51.5144 368.181 49.3584 368.186 47.2C368.179 45.383 368.076 43.5677 367.875 41.7629C366.707 31.7526 362.45 22.4207 355.757 15.1953C349.872 8.8626 342.365 4.46062 334.148 2.52298C325.93 0.585349 317.354 1.19526 309.46 4.27877C301.565 7.36229 294.691 12.787 289.67 19.8954C284.65 27.0038 281.698 35.4906 281.174 44.327C281.106 45.2768 281.083 46.2277 281.083 47.2001C281.083 47.5622 281.15 47.9206 281.282 48.2551C281.414 48.5896 281.607 48.8935 281.851 49.1495C282.094 49.4055 282.383 49.6086 282.701 49.7471C283.019 49.8857 283.361 49.9569 283.705 49.9569V49.9569Z" fill="#FFB067"/>
<path d="M384.055 121.893C382.261 114.975 378.965 111.185 372.392 109.052C366.404 106.942 347.932 100.119 342.589 97.9346C338.327 106.214 332.154 113.233 324.637 118.348C317.119 113.233 310.946 106.214 306.684 97.9346C301.341 100.119 282.869 106.942 276.882 109.052C270.308 111.185 267.012 114.975 265.218 121.893C263.188 129.719 262.825 138.066 262.825 146.139H386.448C386.448 138.066 386.085 129.719 384.055 121.893ZM370.478 132.067H353.39C352.634 132.067 351.91 131.752 351.376 131.19C350.842 130.629 350.542 129.867 350.542 129.073C350.542 128.279 350.842 127.517 351.376 126.956C351.91 126.394 352.634 126.079 353.39 126.079H370.478C371.233 126.079 371.958 126.394 372.492 126.956C373.026 127.517 373.326 128.279 373.326 129.073C373.326 129.867 373.026 130.629 372.492 131.19C371.958 131.752 371.233 132.067 370.478 132.067Z" fill="#CCDBE2"/>
<path d="M309.708 51.0591C309.012 51.0591 308.345 51.3495 307.854 51.8665C307.362 52.3835 307.085 53.0848 307.085 53.8159C307.085 54.5471 307.362 55.2483 307.854 55.7653C308.345 56.2823 309.012 56.5728 309.708 56.5728H316.078C316.774 56.5728 317.441 56.2823 317.933 55.7653C318.424 55.2483 318.701 54.5471 318.701 53.8159C318.701 53.0848 318.424 52.3835 317.933 51.8665C317.441 51.3495 316.774 51.0591 316.078 51.0591H309.708Z" fill="#FFB067"/>
<path d="M333.195 51.0591C332.5 51.0591 331.833 51.3495 331.341 51.8665C330.849 52.3835 330.573 53.0848 330.573 53.8159C330.573 54.5471 330.849 55.2483 331.341 55.7653C331.833 56.2823 332.5 56.5728 333.195 56.5728H339.565C340.261 56.5728 340.928 56.2823 341.42 55.7653C341.911 55.2483 342.188 54.5471 342.188 53.8159C342.188 53.0848 341.911 52.3835 341.42 51.8665C340.928 51.3495 340.261 51.0591 339.565 51.0591H333.195Z" fill="#FFB067"/>
<path d="M324.737 303.455H89.2623C80.5658 303.455 73.2072 295.617 73.2072 286.354V131.726C73.2072 122.462 80.5658 114.624 89.2623 114.624H324.737C333.434 114.624 340.793 122.462 340.793 131.726V286.354C340.793 295.617 333.434 303.455 324.737 303.455Z" fill="white"/>
<path d="M337.448 299.892H76.5521V132.438C76.5521 124.6 82.5728 118.187 89.9314 118.187H324.069C331.427 118.187 337.448 124.6 337.448 132.438V299.892Z" fill="#384454"/>
<path d="M324.069 132.435H89.9313V282.075H324.069V132.435Z" fill="#4F617F"/>
<path d="M340.793 324.832H73.2073C58.4901 324.832 46.4487 312.006 46.4487 296.33H367.551C367.551 312.006 355.51 324.832 340.793 324.832Z" fill="#CCDBE2"/>
<path d="M231.083 303.455H189.607C187.6 303.455 186.262 302.743 184.924 301.318L180.242 296.33H240.448L235.766 301.318C234.428 302.743 233.09 303.455 231.083 303.455Z" fill="#A0B5BA"/>
<path d="M210.345 128.877C212.192 128.877 213.69 127.282 213.69 125.314C213.69 123.346 212.192 121.751 210.345 121.751C208.498 121.751 207 123.346 207 125.314C207 127.282 208.498 128.877 210.345 128.877Z" fill="#1D2226"/>
</svg>
