<svg width="604" height="830" viewBox="0 0 604 830" fill="none" xmlns="http://www.w3.org/2000/svg">
<ellipse cx="358.473" cy="244.632" rx="173.722" ry="172.24" transform="rotate(-45 358.473 244.632)" fill="url(#paint0_radial_58_10)"/>
<path d="M159.653 405.502H319.951C326.764 405.502 332.282 399.984 332.282 393.172C332.282 386.359 326.764 380.841 319.951 380.841H159.653C152.841 380.841 147.323 386.359 147.323 393.172C147.323 399.984 152.841 405.502 159.653 405.502Z" fill="#B2B5C8"/>
<path d="M215.141 356.181C215.141 342.561 226.183 331.52 239.802 331.52C253.422 331.52 264.464 342.561 264.464 356.181C264.464 369.8 253.422 380.842 239.802 380.842C226.183 380.842 215.141 369.8 215.141 356.181Z" fill="#868BA5"/>
<path d="M97.9999 239.039C97.9999 225.419 109.042 214.377 122.661 214.377C136.281 214.377 147.323 225.419 147.323 239.039C147.323 252.658 136.281 263.7 122.661 263.7C109.042 263.7 97.9999 252.658 97.9999 239.039Z" fill="#868BA5"/>
<path d="M375.878 127.625L384.596 136.342L297.406 223.532L288.688 214.814C264.613 190.739 264.613 151.7 288.688 127.624C312.764 103.549 351.803 103.549 375.878 127.625Z" fill="#B2B5C8"/>
<path d="M365.667 155.33C372.226 169.078 369.853 186.021 358.466 197.402C347.084 208.789 330.142 211.163 316.393 204.603L365.667 155.33Z" fill="#FFE600"/>
<path d="M128.389 215.113L235.173 113.909C236.671 117.811 238.952 121.486 242.097 124.63L250.987 133.422L146.41 232.746C144.105 224.021 137.194 217.215 128.389 215.113Z" fill="#B2B5C8"/>
<path d="M146.451 245.201L234.313 332.182C232.63 332.564 231.021 333.131 229.491 333.841C229.362 333.902 229.245 333.982 229.116 334.044C227.697 334.735 226.36 335.542 225.108 336.479C225.028 336.535 224.96 336.603 224.886 336.658C223.592 337.651 222.408 338.767 221.329 339.993C221.323 339.999 221.316 340.006 221.316 340.011C220.194 341.294 219.22 342.681 218.382 344.179C217.26 346.182 216.354 348.322 215.823 350.622L129.108 262.741C137.61 260.429 144.237 253.74 146.451 245.201Z" fill="#B2B5C8"/>
<path d="M242.666 81.6037C254.706 69.5631 274.219 69.5631 286.261 81.6037L316.101 111.771C306.063 114.496 296.569 119.743 288.689 127.622C280.804 135.507 275.557 145.002 272.832 155.039L242.666 125.199C230.625 113.158 230.625 93.6444 242.666 81.6037Z" fill="#868BA5"/>
<path d="M253.35 799.155H218.65C214.752 799.155 211.586 796.211 211.586 792.585V708.328H260.414V792.585C260.414 796.211 257.248 799.155 253.35 799.155Z" fill="#AFB6BB"/>
<path d="M472 405.569H0V708.327H472V405.569Z" fill="#38454F"/>
<path d="M260.414 769.432V792.593C260.414 796.211 257.248 799.155 253.35 799.155H218.65C214.752 799.155 211.586 796.211 211.586 792.585V769.424C151.357 772.089 105.793 784.373 105.793 799.155C105.793 815.875 164.085 829.431 236 829.431C307.915 829.431 366.207 815.875 366.207 799.155C366.207 784.373 320.643 772.089 260.414 769.432Z" fill="#38454F"/>
<path d="M439.448 435.845H32.5518V678.052H439.448V435.845Z" fill="#7A8991"/>
<path d="M65.1035 503.965C67.1868 503.965 69.2701 503.224 70.857 501.748L103.409 471.472C106.591 468.512 106.591 463.729 103.409 460.769C100.227 457.81 95.0836 457.81 91.9017 460.769L59.3499 491.045C56.168 494.005 56.168 498.788 59.3499 501.748C60.9368 503.224 63.0202 503.965 65.1035 503.965Z" fill="#839CAA"/>
<path d="M65.1035 541.81C67.1868 541.81 69.2701 541.069 70.857 539.593L87.1328 524.455C90.3148 521.495 90.3148 516.712 87.1328 513.752C83.9509 510.793 78.8077 510.793 75.6258 513.752L59.3499 528.89C56.168 531.85 56.168 536.633 59.3499 539.593C60.9368 541.069 63.0202 541.81 65.1035 541.81Z" fill="#839CAA"/>
<path d="M91.8772 498.592C90.4124 500.03 89.5172 501.998 89.5172 503.966C89.5172 505.933 90.4124 507.901 91.8772 509.34C93.4234 510.702 95.5393 511.535 97.6551 511.535C99.8524 511.535 101.887 510.702 103.433 509.34C104.898 507.901 105.793 505.933 105.793 503.966C105.793 501.998 104.898 500.03 103.433 498.592C100.422 495.791 94.9696 495.791 91.8772 498.592Z" fill="#839CAA"/>
<path d="M108.178 494.179C109.764 495.655 111.848 496.397 113.931 496.397C116.014 496.397 118.098 495.655 119.685 494.179L144.098 471.472C147.28 468.512 147.28 463.729 144.098 460.769C140.916 457.81 135.773 457.81 132.591 460.769L108.178 483.476C104.996 486.436 104.996 491.219 108.178 494.179Z" fill="#839CAA"/>
<path d="M132.591 498.614L59.3499 566.735C56.168 569.694 56.168 574.478 59.3499 577.437C60.9368 578.913 63.0202 579.655 65.1035 579.655C67.1868 579.655 69.2701 578.913 70.857 577.437L144.098 509.317C147.28 506.357 147.28 501.574 144.098 498.614C140.916 495.655 135.773 495.655 132.591 498.614Z" fill="#839CAA"/>
<path d="M148.843 483.453C147.378 484.892 146.483 486.859 146.483 488.827C146.483 490.871 147.378 492.763 148.843 494.201C150.389 495.564 152.505 496.396 154.621 496.396C156.737 496.396 158.852 495.564 160.399 494.201C161.863 492.763 162.759 490.871 162.759 488.827C162.759 486.859 161.863 484.892 160.399 483.453C157.388 480.653 151.935 480.653 148.843 483.453Z" fill="#839CAA"/>
<path d="M184.788 460.769C181.606 457.81 176.463 457.81 173.281 460.769L165.143 468.338C161.961 471.298 161.961 476.081 165.143 479.041C166.73 480.517 168.813 481.259 170.897 481.259C172.98 481.259 175.063 480.517 176.65 479.041L184.788 471.472C187.97 468.512 187.97 463.729 184.788 460.769Z" fill="#839CAA"/>
<defs>
<radialGradient id="paint0_radial_58_10" cx="0" cy="0" r="1" gradientUnits="userSpaceOnUse" gradientTransform="translate(358.473 244.632) rotate(90) scale(172.24 173.722)">
<stop stop-color="#C4C4C4" stop-opacity="0.35"/>
<stop offset="1" stop-color="#C4C4C4" stop-opacity="0"/>
</radialGradient>
</defs>
</svg>
