<svg width="249" height="249" viewBox="0 0 249 249" fill="none" xmlns="http://www.w3.org/2000/svg">
<path d="M124.5 249C193.259 249 249 193.259 249 124.5C249 55.7405 193.259 0 124.5 0C55.7405 0 0 55.7405 0 124.5C0 193.259 55.7405 249 124.5 249Z" fill="#7AA5DA"/>
<path d="M248.963 121.62L193.696 66.4448L103.673 176.175L168.493 240.995C215.539 223.219 249 177.77 249 124.5C249 123.537 248.985 122.577 248.963 121.62Z" fill="#5786B5"/>
<path d="M186.612 64.9344C191.576 62.9978 196.707 67.3407 195.617 72.5552L173.357 178.955C172.318 183.943 166.457 186.19 162.349 183.171L128.747 158.506L111.619 175.995C108.609 179.064 103.42 177.815 102.128 173.723L89.7708 134.495L56.646 124.711C52.2948 123.428 52.0434 117.375 56.2603 115.724L186.612 64.9344ZM170.272 88.5432C171.722 87.2603 170.037 84.9969 168.394 86.0196L96.8964 130.362C95.6388 131.141 95.0605 132.676 95.5046 134.092L105.255 176.909C105.448 177.563 106.387 177.47 106.471 176.791L108.651 144.162C108.734 143.357 109.12 142.619 109.724 142.083L170.272 88.5432Z" fill="white"/>
<path d="M168.395 86.0201C170.038 84.9974 171.723 87.2607 170.273 88.5437L109.725 142.083C109.121 142.619 108.736 143.357 108.652 144.162L106.472 176.792C106.388 177.471 105.449 177.563 105.256 176.909L95.5056 134.093C95.0611 132.676 95.6398 131.142 96.8975 130.362L168.395 86.0201Z" fill="#9EC2E5"/>
<path d="M105.608 177.353C104.032 176.791 102.699 175.533 102.129 173.722L89.7713 134.494L56.6465 124.71C52.2953 123.427 52.0439 117.374 56.2608 115.723L186.612 64.9339C189.815 63.6845 193.093 65.0511 194.711 67.5834C194.409 67.1224 194.049 66.6949 193.647 66.3175L105.214 138.51V141.671L104.727 141.319L105.214 161.222V177.185C105.34 177.244 105.473 177.294 105.608 177.336V177.353H105.608Z" fill="white"/>
<path d="M195.759 70.7692C195.785 71.3392 195.743 71.9427 195.617 72.555L173.357 178.954C172.318 183.943 166.457 186.189 162.349 183.171L128.747 158.506L105.214 141.672V138.511L193.647 66.3174C194.049 66.6948 194.41 67.1223 194.711 67.5833C194.77 67.684 194.828 67.7759 194.887 67.8683C194.937 67.969 194.996 68.0696 195.047 68.1615C195.097 68.2622 195.147 68.3629 195.189 68.4635C195.239 68.5725 195.282 68.6732 195.323 68.7821C195.357 68.8745 195.399 68.9747 195.432 69.0841C195.541 69.4109 195.625 69.7465 195.684 70.0986C195.717 70.3165 195.743 70.5348 195.759 70.7692Z" fill="#D1D1D1"/>
<path d="M128.747 158.507L111.619 175.995C111.477 176.138 111.326 176.28 111.175 176.406C111.024 176.532 110.873 176.641 110.714 176.75C110.705 176.758 110.705 176.758 110.705 176.758C110.387 176.968 110.06 177.144 109.716 177.287C109.54 177.354 109.372 177.421 109.196 177.463C108.467 177.681 107.721 177.739 106.983 177.664C106.79 177.647 106.597 177.614 106.413 177.58C106.388 177.58 106.363 177.572 106.338 177.564C106.153 177.514 105.968 177.463 105.784 177.404C105.725 177.388 105.667 177.371 105.608 177.337L105.214 161.224V141.672L128.747 158.507Z" fill="#D1D1D1"/>
<path d="M111.175 176.406C111.024 176.532 110.873 176.649 110.714 176.758V176.75C110.873 176.641 111.024 176.532 111.175 176.406Z" fill="#DADDE0"/>
<path d="M110.714 176.75V176.759C110.714 176.759 110.714 176.75 110.705 176.759C110.705 176.759 110.705 176.759 110.714 176.75Z" fill="#DADDE0"/>
<path d="M109.716 177.286C110.06 177.144 110.387 176.968 110.705 176.758C110.387 176.967 110.051 177.143 109.716 177.286Z" fill="#DADDE0"/>
<path d="M106.983 177.662C107.721 177.738 108.467 177.679 109.196 177.462C108.668 177.629 108.123 177.704 107.578 177.704C107.41 177.704 107.243 177.696 107.084 177.679C107.05 177.679 107.017 177.679 106.983 177.662Z" fill="#DADDE0"/>
<path d="M107.578 177.705C107.41 177.705 107.243 177.697 107.084 177.68C107.243 177.697 107.41 177.705 107.578 177.705Z" fill="white"/>
<path d="M106.983 177.663C107.016 177.68 107.05 177.68 107.084 177.68C106.908 177.671 106.748 177.646 106.581 177.613C106.714 177.638 106.849 177.655 106.983 177.663Z" fill="white"/>
<path d="M106.983 177.663C106.849 177.655 106.714 177.638 106.581 177.613C106.522 177.605 106.464 177.597 106.413 177.58C106.597 177.613 106.79 177.646 106.983 177.663Z" fill="#DADDE0"/>
<path d="M105.784 177.404C105.968 177.462 106.153 177.512 106.338 177.563C106.262 177.546 106.187 177.529 106.111 177.513C106.078 177.505 106.044 177.496 106.019 177.479C105.943 177.462 105.86 177.437 105.784 177.404Z" fill="#DADDE0"/>
<path d="M106.111 177.513C106.186 177.529 106.261 177.546 106.335 177.562C106.261 177.554 106.186 177.538 106.111 177.513Z" fill="white"/>
<path d="M105.784 177.404C105.86 177.437 105.944 177.463 106.019 177.479C105.893 177.454 105.768 177.412 105.642 177.362C105.692 177.379 105.734 177.396 105.784 177.404Z" fill="white"/>
<path d="M105.783 177.404C105.733 177.395 105.691 177.378 105.641 177.362C105.633 177.37 105.616 177.362 105.608 177.354V177.337C105.666 177.37 105.724 177.387 105.783 177.404Z" fill="#DADDE0"/>
<path d="M105.214 161.223L105.608 177.337C105.473 177.295 105.339 177.244 105.214 177.186V161.223Z" fill="#D1D1D1"/>
<path d="M105.214 141.672V161.223L104.727 141.32L105.214 141.672Z" fill="#DADDE0"/>
<path d="M170.272 88.5434L109.724 142.083C109.121 142.619 108.735 143.357 108.651 144.162L106.475 176.794C106.392 177.473 105.452 177.566 105.251 176.912L95.5051 134.093C95.0606 132.676 95.6393 131.142 96.897 130.362L168.395 86.0203C170.038 84.997 171.723 87.2609 170.272 88.5434Z" fill="#ADBCC9"/>
</svg>
