<svg width="249" height="250" viewBox="0 0 249 250" fill="none" xmlns="http://www.w3.org/2000/svg">
<path d="M124.5 249C193.259 249 249 193.259 249 124.5C249 55.7405 193.259 0 124.5 0C55.7405 0 0 55.7405 0 124.5C0 193.259 55.7405 249 124.5 249Z" fill="#75B73B"/>
<path d="M174.972 74.3564C167.754 72.5512 157.138 66.3164 150.267 63.8172C123.438 55.4334 87.3879 62.1403 77.3272 93.1608C76.4888 93.9992 74.8119 93.9992 73.9735 93.9992C53.8522 117.474 67.2665 145.979 65.5897 171.969C65.0173 181.131 60.1997 189.232 54 196.085L106.174 248.205C112.085 249.065 118.127 249.519 124.277 249.519C185.766 249.519 236.838 204.94 246.952 146.339L174.972 74.3564Z" fill="#52891D"/>
<path d="M121.016 52.7413C83.0687 54.5466 53.123 86.1501 53.2373 124.14C53.2723 135.71 56.0658 146.632 60.9943 156.284L53.4285 193.008C53.0194 194.995 54.8111 196.735 56.7846 196.267L92.7705 187.742C102.016 192.348 112.401 195.007 123.391 195.175C162.177 195.768 194.517 164.971 195.727 126.199C197.022 84.6386 162.721 50.7547 121.016 52.7413ZM163.956 163.376C153.418 173.914 139.404 179.718 124.5 179.718C115.773 179.718 107.417 177.76 99.6651 173.899L94.655 171.402L72.5903 176.629L77.2342 154.084L74.7661 149.249C70.7412 141.367 68.7006 132.846 68.7006 123.919C68.7006 109.014 74.5049 95.0023 85.0432 84.4631C95.4876 74.0177 109.729 68.1205 124.501 68.1205C139.404 68.1205 153.417 73.9248 163.955 84.4631C174.494 95.0013 180.298 109.014 180.298 123.917C180.299 138.69 174.401 152.931 163.956 163.376Z" fill="white"/>
<path d="M159.085 139.373L145.281 135.41C143.468 134.89 141.513 135.405 140.19 136.752L136.814 140.191C135.391 141.642 133.232 142.107 131.348 141.345C124.818 138.702 111.082 126.489 107.576 120.381C106.562 118.619 106.73 116.417 107.973 114.807L110.919 110.995C112.074 109.502 112.317 107.495 111.554 105.768L105.747 92.6335C104.356 89.4879 100.336 88.5717 97.7091 90.7932C93.8569 94.0521 89.2859 99.0024 88.731 104.488C87.7511 114.16 91.8994 126.351 107.582 140.99C125.701 157.903 140.212 160.136 149.661 157.848C155.019 156.551 159.302 151.348 162.003 147.087C163.847 144.18 162.39 140.323 159.085 139.373Z" fill="white"/>
<path d="M173.135 71.835L162.327 82.9125C162.877 83.4208 163.425 83.9319 163.957 84.4644C174.495 95.0027 180.299 109.016 180.299 123.919C180.299 138.691 174.401 152.931 163.957 163.377C153.418 173.915 139.405 179.719 124.501 179.719C115.774 179.719 107.419 177.761 99.6661 173.9L94.6559 171.403L72.5912 176.629L73.0474 174.415L53.5096 194.438C53.9405 195.733 55.3115 196.615 56.7846 196.266L92.7704 187.741C102.016 192.347 112.401 195.006 123.391 195.174C162.177 195.766 194.518 164.97 195.727 126.198C196.396 104.735 187.57 85.3194 173.135 71.835Z" fill="#D1D1D1"/>
<path d="M159.085 139.373L145.281 135.41C143.468 134.89 141.513 135.405 140.19 136.752L136.814 140.19C135.391 141.642 133.232 142.107 131.348 141.345C127.576 139.818 121.402 135.098 116.182 130.206L106.586 140.042C106.915 140.357 107.243 140.672 107.583 140.989C125.702 157.903 140.212 160.136 149.661 157.847C155.02 156.55 159.303 151.348 162.004 147.087C163.847 144.18 162.39 140.323 159.085 139.373Z" fill="#D1D1D1"/>
</svg>
