<svg width="504" height="490" viewBox="0 0 504 490" fill="none" xmlns="http://www.w3.org/2000/svg">
<path d="M469.778 448.475H34.2222V174.407C34.2222 160.288 45.1111 149.492 59.3504 149.492H444.65C458.889 149.492 469.778 160.288 469.778 174.407V448.475Z" fill="#606060"/>
<path d="M436.273 182.712H67.7264V448.474H436.273V182.712Z" fill="#02B8D9"/>
<path d="M9.09396 448.475C9.09396 471.729 27.5213 490 50.9743 490H453.026C476.479 490 494.906 471.729 494.906 448.475H9.09396Z" fill="#707070"/>
<path d="M453.026 473.39H50.9743C34.2222 473.39 19.1452 463.424 12.4444 448.475H9.09396C9.09396 471.729 27.5213 490 50.9743 490H453.026C476.479 490 494.906 471.729 494.906 448.475H491.556C484.855 463.424 469.778 473.39 453.026 473.39Z" fill="#606060"/>
<path d="M360.889 306.457C361.726 302.305 365.915 298.983 370.103 298.983H383.504C390.205 298.983 395.231 294.83 395.231 289.017V258.288C395.231 253.305 391.043 248.322 385.179 248.322H370.103C365.915 248.322 361.726 245 360.889 240.847C358.376 233.373 355.863 225.898 351.675 219.254C349.162 215.101 350 210.949 353.35 207.627L362.564 198.491C367.59 193.508 367.59 187.695 363.402 183.542L342.462 162.779C338.273 158.627 332.41 158.627 328.222 162.779L318.171 174.407C314.821 177.729 310.632 177.729 306.444 176.068C299.744 171.915 292.205 169.423 284.667 166.932C280.479 166.101 277.128 161.949 277.128 157.796V144.508C277.128 137.864 272.94 132.881 267.077 132.881H236.085C231.06 132.881 226.034 137.034 226.034 142.847V157.796C226.034 161.949 222.684 166.101 218.496 166.932C210.957 169.423 203.419 171.915 196.718 176.068C192.53 178.559 188.342 177.729 184.991 174.407L176.615 165.271C171.59 160.288 165.726 160.288 161.538 164.44L140.598 185.203C136.41 189.356 136.41 195.169 140.598 199.322L150.65 209.288C154 212.61 154 216.762 152.325 220.915C148.137 227.559 145.624 235.034 143.111 242.508C142.273 246.661 138.085 249.983 133.897 249.983H120.496C113.795 249.983 108.769 254.135 108.769 259.949V290.678C108.769 295.661 112.957 300.644 118.82 300.644H133.897C138.085 300.644 142.273 303.966 143.111 308.118C145.624 315.593 148.137 323.068 152.325 329.712C154.838 333.864 154 338.017 150.65 341.339L142.273 348.813C137.248 353.796 137.248 359.61 141.436 363.762L162.376 384.525C166.564 388.678 172.427 388.678 176.615 384.525L186.667 374.559C190.017 371.237 194.205 371.237 198.393 372.898C205.094 377.051 212.632 379.542 220.171 382.034C224.359 382.864 227.709 387.017 227.709 391.169V406.118C227.709 411.101 231.897 416.084 237.761 416.084H268.752C273.778 416.084 278.803 411.932 278.803 406.118V391.169C278.803 387.017 282.154 382.864 286.342 382.034C293.88 379.542 301.419 377.051 308.12 372.898C312.308 370.407 316.496 371.237 319.846 374.559L329.06 383.695C334.085 388.678 339.949 388.678 344.137 384.525L365.077 363.762C369.265 359.61 369.265 353.796 365.077 349.644L352.513 339.678C349.162 336.356 349.162 332.203 350.838 328.051C355.026 321.407 358.376 313.932 360.889 306.457ZM252 348.813C210.12 348.813 176.615 315.593 176.615 274.068C176.615 232.542 210.12 199.322 252 199.322C293.88 199.322 327.385 232.542 327.385 274.068C327.385 315.593 293.88 348.813 252 348.813Z" fill="white"/>
<path d="M150.649 224.238C151.487 222.577 152.325 221.746 152.325 220.085C154.837 215.932 154 211.78 150.649 208.458L142.273 199.322L140.598 200.983C136.41 205.136 136.41 210.949 140.598 215.102L150.649 224.238Z" fill="#0A66A8"/>
<path d="M351.675 220.085C352.513 221.746 353.35 222.577 353.35 224.238L361.726 215.932C366.752 210.949 366.752 205.136 362.564 200.983L361.726 199.322L352.513 208.458C350 211.78 349.162 215.932 351.675 220.085Z" fill="#0A66A8"/>
<path d="M252 199.322C210.12 199.322 176.615 232.543 176.615 274.068C176.615 276.56 176.615 279.882 177.453 282.373C181.641 245 213.47 215.932 252 215.932C290.53 215.932 322.359 245 326.547 282.373C326.547 279.882 327.385 276.56 327.385 274.068C327.385 232.543 293.88 199.322 252 199.322Z" fill="#0A66A8"/>
<path d="M361.726 365.424L342.461 384.526C338.273 388.678 332.41 388.678 327.385 383.695L318.171 373.729C314.82 370.407 310.632 370.407 306.444 372.068C299.743 376.22 292.205 378.712 284.667 381.204C280.479 382.034 277.128 386.187 277.128 390.339V405.288C277.128 410.271 272.94 415.254 267.077 415.254H236.085C231.06 415.254 226.034 411.102 226.034 405.288V390.339C226.034 386.187 222.684 382.034 218.496 381.204C210.957 378.712 203.419 376.22 196.718 372.068C192.53 369.576 188.342 370.407 184.991 373.729L174.94 383.695C170.752 387.848 164.889 387.848 160.701 383.695L142.273 365.424C137.248 370.407 137.248 376.22 141.436 380.373L162.376 401.136C166.564 405.288 172.427 405.288 176.615 401.136L186.667 391.17C190.017 387.848 194.205 387.848 198.393 389.509C205.094 393.661 212.632 396.153 220.171 398.644C224.359 399.475 227.709 403.627 227.709 407.78V422.729C227.709 427.712 231.897 432.695 237.761 432.695H268.752C273.778 432.695 278.803 428.543 278.803 422.729V407.78C278.803 403.627 282.154 399.475 286.342 398.644C293.88 396.153 301.419 393.661 308.12 389.509C312.308 387.017 316.496 387.848 319.846 391.17L329.06 400.305C334.085 405.288 339.949 405.288 344.137 401.136L365.077 380.373C369.265 376.22 369.265 370.407 365.077 366.254L361.726 365.424Z" fill="#0A66A8"/>
<path d="M143.111 323.068C144.786 328.882 147.299 334.695 149.812 340.509L150.65 339.678C154 336.356 154 332.204 152.325 328.051C148.137 321.407 145.624 313.932 143.111 306.458C142.273 302.305 138.085 298.983 133.897 298.983H118.82C113.795 298.983 108.769 294.831 108.769 289.017V305.627C108.769 310.61 112.957 315.593 118.82 315.593H133.897C138.923 315.593 142.273 318.915 143.111 323.068Z" fill="#0A66A8"/>
<path d="M382.667 298.983H369.265C365.077 298.983 360.889 302.305 360.051 306.458C357.538 313.932 355.025 321.407 350.837 328.051C348.325 332.204 349.162 336.356 352.513 339.678L353.35 340.509C355.863 334.695 358.376 328.882 360.051 323.068C360.889 318.915 365.077 315.593 369.265 315.593H382.667C389.367 315.593 394.393 311.441 394.393 305.627V289.017C394.393 294.831 390.205 298.983 382.667 298.983Z" fill="#0A66A8"/>
<path d="M252 107.966C246.974 107.966 243.624 104.644 243.624 99.6608V58.1354C243.624 53.1524 246.974 49.8303 252 49.8303C257.026 49.8303 260.376 53.1524 260.376 58.1354V99.6608C260.376 104.644 257.026 107.966 252 107.966Z" fill="#EFEFEF"/>
<path d="M386.017 124.577C380.991 124.577 377.641 121.255 377.641 116.271V33.2206C377.641 28.2376 380.991 24.9155 386.017 24.9155H444.65C449.675 24.9155 453.026 28.2376 453.026 33.2206C453.026 38.2037 449.675 41.5257 444.65 41.5257H394.393V116.271C394.393 121.255 391.043 124.577 386.017 124.577Z" fill="#EFEFEF"/>
<path d="M117.983 124.577C112.957 124.577 109.607 121.255 109.607 116.271V41.5257H59.3504C54.3247 41.5257 50.9743 38.2037 50.9743 33.2206C50.9743 28.2376 54.3247 24.9155 59.3504 24.9155H117.983C123.008 24.9155 126.359 28.2376 126.359 33.2206V116.271C126.359 121.255 123.008 124.577 117.983 124.577Z" fill="#EFEFEF"/>
<path d="M34.2222 66.4407C52.7261 66.4407 67.7264 51.5674 67.7264 33.2203C67.7264 14.8733 52.7261 0 34.2222 0C15.7183 0 0.717896 14.8733 0.717896 33.2203C0.717896 51.5674 15.7183 66.4407 34.2222 66.4407Z" fill="#04B134"/>
<path d="M252 66.4407C270.504 66.4407 285.504 51.5674 285.504 33.2203C285.504 14.8733 270.504 0 252 0C233.496 0 218.496 14.8733 218.496 33.2203C218.496 51.5674 233.496 66.4407 252 66.4407Z" fill="#F46240"/>
<path d="M469.778 66.4407C488.282 66.4407 503.282 51.5674 503.282 33.2203C503.282 14.8733 488.282 0 469.778 0C451.274 0 436.273 14.8733 436.273 33.2203C436.273 51.5674 451.274 66.4407 469.778 66.4407Z" fill="#F2C341"/>
</svg>
