<svg width="274" height="64" viewBox="0 0 274 64" fill="none" xmlns="http://www.w3.org/2000/svg">
<path d="M39.4558 63.9998L58.109 20.8657C59.004 18.8084 60.0167 17.3912 61.1472 16.614C62.3248 15.8368 64.0205 15.4482 66.2344 15.4482C68.3541 15.4482 70.0027 15.8597 71.1803 16.6826C72.405 17.4598 73.4649 18.8542 74.3598 20.8657L93.013 63.9998H83.1918L78.1046 51.8619H54.2936L49.277 63.9998H39.4558ZM64.8213 25.8717L56.6959 45.4158H75.7023L67.6475 25.8717C67.0823 24.5459 66.6112 23.883 66.2344 23.883C65.8576 23.883 65.3865 24.5459 64.8213 25.8717Z" fill="#0C7ECF"/>
<path d="M104.476 63.9998H95.1498V15.9968H104.476V63.9998Z" fill="#0C7ECF"/>
<path d="M136.622 63.9998H127.295V23.1973H108.006V15.9968H155.981V23.1973H136.622V63.9998Z" fill="#0C7ECF"/>
<path d="M168.853 63.9998H159.527V15.9968H168.853V63.9998Z" fill="#0C7ECF"/>
<path d="M177.329 63.9998V15.9968H186.655V63.9998H177.329ZM224.668 63.9998H212.869L192.52 45.5529C190.447 43.7243 189.411 41.6441 189.411 39.3126C189.411 37.301 190.212 35.518 191.813 33.9637L210.537 15.9968H222.054L200.716 35.678C200.622 35.7238 200.48 35.8381 200.292 36.0209C200.151 36.1581 200.033 36.2724 199.939 36.3638C199.891 36.4552 199.774 36.5695 199.585 36.7067C199.444 36.8438 199.326 36.9581 199.232 37.0496C199.185 37.141 199.091 37.2781 198.949 37.461C198.855 37.5982 198.785 37.7353 198.737 37.8725C198.69 37.9639 198.62 38.1011 198.525 38.2839C198.478 38.4211 198.431 38.5811 198.384 38.7639C198.384 38.9011 198.384 39.0611 198.384 39.244C198.384 39.884 198.549 40.5241 198.879 41.1641C199.256 41.8041 199.585 42.2613 199.868 42.5356C200.151 42.7642 200.622 43.1756 201.281 43.77L224.668 63.9998Z" fill="#0C7ECF"/>
<path d="M220.443 63.9998L239.096 20.8657C239.991 18.8084 241.004 17.3912 242.134 16.614C243.312 15.8368 245.007 15.4482 247.221 15.4482C249.341 15.4482 250.99 15.8597 252.167 16.6826C253.392 17.4598 254.452 18.8542 255.347 20.8657L274 63.9998H264.179L259.091 51.8619H235.28L230.264 63.9998H220.443ZM245.808 25.8717L237.683 45.4158H256.689L248.634 25.8717C248.069 24.5459 247.598 23.883 247.221 23.883C246.844 23.883 246.373 24.5459 245.808 25.8717Z" fill="#0C7ECF"/>
<path d="M0 11.0344C0 4.94029 4.94029 0 11.0344 0H274V11.0344H0Z" fill="#6DADDA"/>
<path d="M0 13.2412H10.96V63.9996C4.90696 63.9996 0 59.0927 0 53.0396V13.2412Z" fill="#3C92CE"/>
<rect x="13.1521" y="13.2422" width="10.96" height="50.7584" fill="#68A8D5"/>
<rect x="26.304" y="13.2422" width="10.96" height="50.7584" fill="#94C5E7"/>
</svg>
