<svg width="138" height="32" viewBox="0 0 138 32" fill="none" xmlns="http://www.w3.org/2000/svg">
<path d="M19.8831 31.9999L29.2096 10.4329C29.6571 9.40422 30.1635 8.69561 30.7287 8.30701C31.3175 7.91842 32.1654 7.72412 33.2724 7.72412C34.3322 7.72412 35.1565 7.92985 35.7453 8.3413C36.3577 8.7299 36.8876 9.42708 37.3351 10.4329L46.6617 31.9999H41.7511L39.2075 25.9309H27.3019L24.7936 31.9999H19.8831ZM32.5658 12.9359L28.5031 22.7079H38.0063L33.9789 12.9359C33.6963 12.273 33.4608 11.9415 33.2724 11.9415C33.0839 11.9415 32.8484 12.273 32.5658 12.9359Z" fill="white"/>
<path d="M52.3933 31.9999H47.73V7.99842H52.3933V31.9999Z" fill="white"/>
<path d="M68.4659 31.9999H63.8026V11.5986H54.1581V7.99842H78.1458V11.5986H68.4659V31.9999Z" fill="white"/>
<path d="M84.5818 31.9999H79.9185V7.99842H84.5818V31.9999Z" fill="white"/>
<path d="M88.8195 31.9999V7.99842H93.4828V31.9999H88.8195ZM112.489 31.9999H106.589L96.415 22.7765C95.3787 21.8621 94.8606 20.8221 94.8606 19.6563C94.8606 18.6505 95.261 17.759 96.0617 16.9818L105.424 7.99842H111.182L100.513 17.839C100.466 17.8619 100.395 17.919 100.301 18.0105C100.23 18.079 100.172 18.1362 100.124 18.1819C100.101 18.2276 100.042 18.2848 99.9478 18.3533C99.8772 18.4219 99.8183 18.4791 99.7712 18.5248C99.7476 18.5705 99.7005 18.6391 99.6299 18.7305C99.5828 18.7991 99.5474 18.8677 99.5239 18.9362C99.5003 18.9819 99.465 19.0505 99.4179 19.142C99.3943 19.2105 99.3708 19.2905 99.3472 19.382C99.3472 19.4506 99.3472 19.5306 99.3472 19.622C99.3472 19.942 99.4297 20.262 99.5945 20.582C99.783 20.9021 99.9478 21.1307 100.089 21.2678C100.23 21.3821 100.466 21.5878 100.796 21.885L112.489 31.9999Z" fill="white"/>
<path d="M110.376 31.9999L119.703 10.4329C120.151 9.40422 120.657 8.69561 121.222 8.30701C121.811 7.91842 122.659 7.72412 123.766 7.72412C124.826 7.72412 125.65 7.92985 126.239 8.3413C126.851 8.7299 127.381 9.42708 127.828 10.4329L137.155 31.9999H132.244L129.701 25.9309H117.795L115.287 31.9999H110.376ZM123.059 12.9359L118.996 22.7079H128.5L124.472 12.9359C124.19 12.273 123.954 11.9415 123.766 11.9415C123.577 11.9415 123.342 12.273 123.059 12.9359Z" fill="white"/>
<path d="M0.155151 5.51722C0.155151 2.47014 2.6253 0 5.67237 0H137.155V5.51722H0.155151Z" fill="#6DADDA"/>
<path d="M0.155151 6.62085H5.63515V32.0001C2.60863 32.0001 0.155151 29.5466 0.155151 26.5201V6.62085Z" fill="#3C92CE"/>
<rect x="6.7312" y="6.62085" width="5.48" height="25.3792" fill="#68A8D5"/>
<rect x="13.3071" y="6.62085" width="5.48" height="25.3792" fill="#94C5E7"/>
</svg>
