<svg width="26" height="22" viewBox="0 0 26 22" fill="none" xmlns="http://www.w3.org/2000/svg">
<path d="M2.65612 9.54421C9.36699 6.62039 13.842 4.69283 16.081 3.76153C22.474 1.10247 23.8024 0.640563 24.6682 0.625148C24.8587 0.621956 25.2845 0.66915 25.5603 0.892952C25.7932 1.08193 25.8572 1.3372 25.8879 1.51637C25.9186 1.69554 25.9567 2.10368 25.9264 2.4226C25.5799 6.06265 24.0809 14.8961 23.3183 18.973C22.9956 20.6981 22.3602 21.2765 21.7451 21.3331C20.4082 21.4561 19.3931 20.4496 18.0983 19.6009C16.0723 18.2728 14.9276 17.446 12.961 16.15C10.6882 14.6523 12.1615 13.8291 13.4568 12.4837C13.7958 12.1317 19.6859 6.77416 19.7999 6.28815C19.8142 6.22736 19.8274 6.00079 19.6928 5.88115C19.5582 5.76151 19.3595 5.80243 19.2162 5.83496C19.0129 5.88108 15.7763 8.02042 9.50608 12.253C8.58735 12.8838 7.7552 13.1912 7.00962 13.1751C6.18768 13.1573 4.6066 12.7104 3.43122 12.3283C1.98957 11.8597 0.843784 11.6119 0.943556 10.816C0.995524 10.4015 1.56638 9.97756 2.65612 9.54421Z" fill="white"/>
</svg>
