<svg width="26" height="26" viewBox="0 0 26 26" fill="none" xmlns="http://www.w3.org/2000/svg">
<path fill-rule="evenodd" clip-rule="evenodd" d="M21.75 4.09375C19.4063 1.75 16.2812 0.5 13 0.5C6.125 0.5 0.5 6.125 0.5 13C0.5 15.1875 1.12501 17.375 2.21876 19.25L0.5 25.5L7.06252 23.7812C8.93752 24.7187 10.9688 25.3437 13 25.3437C19.875 25.3437 25.5 19.7187 25.5 12.8437C25.5 9.5625 24.0938 6.4375 21.75 4.09375ZM13 23.3125C11.125 23.3125 9.25001 22.8438 7.68751 21.9063L7.37499 21.75L3.46874 22.8437L4.56251 19.0937L4.24999 18.625C3.15624 16.9063 2.68749 15.0313 2.68749 13.1563C2.68749 7.53125 7.375 2.84375 13 2.84375C15.8125 2.84375 18.3125 3.9375 20.3438 5.8125C22.375 7.84375 23.3125 10.3438 23.3125 13.1563C23.3125 18.625 18.7813 23.3125 13 23.3125ZM18.625 15.5C18.3125 15.3438 16.75 14.5625 16.4375 14.5625C16.125 14.4062 15.9687 14.4063 15.8125 14.7188C15.6562 15.0313 15.0313 15.6562 14.875 15.9687C14.7188 16.125 14.5625 16.125 14.25 16.125C13.9375 15.9687 13 15.6562 11.75 14.5625C10.8125 13.7812 10.1875 12.6875 10.0313 12.375C9.87501 12.0625 10.0313 11.9062 10.1875 11.75C10.3438 11.5937 10.5 11.4375 10.6562 11.2812C10.8125 11.125 10.8125 10.9688 10.9688 10.8125C11.125 10.6563 10.9688 10.5 10.9688 10.3438C10.9688 10.1875 10.3438 8.625 10.0313 8C9.87501 7.53125 9.56252 7.53125 9.40627 7.53125C9.25002 7.53125 9.09373 7.53125 8.78123 7.53125C8.62498 7.53125 8.31248 7.53125 7.99998 7.84375C7.68748 8.15625 6.90626 8.9375 6.90626 10.5C6.90626 12.0625 7.99999 13.4687 8.15624 13.7812C8.31249 13.9375 10.3437 17.2187 13.4687 18.4688C16.125 19.5625 16.5938 19.25 17.2188 19.25C17.8438 19.25 19.0937 18.4688 19.25 17.8438C19.5625 17.0625 19.5625 16.4375 19.4063 16.4375C19.25 15.6563 18.9375 15.6563 18.625 15.5Z" fill="white"/>
</svg>
